<?xml version="1.0" encoding="UTF-8"?>
<svg xmlns="http://www.w3.org/2000/svg" xmlns:xlink="http://www.w3.org/1999/xlink" viewBox="0 0 845.98 151.67">
  <defs>
    <style>
      .cls-1 {
        fill: none;
      }

      .cls-2 {
        font-size: 4.98px;
      }

      .cls-2, .cls-3 {
        font-family: Montserrat-Bold, Montserrat;
        font-weight: 700;
      }

      .cls-2, .cls-3, .cls-4 {
        fill: #ae3633;
      }

      .cls-5 {
        fill: #f8bec6;
      }

      .cls-6 {
        mix-blend-mode: multiply;
        opacity: .4;
      }

      .cls-3 {
        font-size: 7.93px;
      }

      .cls-7 {
        isolation: isolate;
      }

      .cls-8 {
        letter-spacing: 0em;
      }

      .cls-9 {
        fill: #fff;
      }

      .cls-10 {
        fill: #f7a6ac;
      }

      .cls-11 {
        letter-spacing: -.04em;
      }

      .cls-12 {
        letter-spacing: -.01em;
      }

      .cls-13 {
        letter-spacing: .02em;
      }

      .cls-14 {
        clip-path: url(#clippath);
      }

      .cls-15 {
        letter-spacing: .01em;
      }
    </style>
    <clipPath id="clippath">
      <rect class="cls-1" x="38.99" y="5.7" width="768" height="131"/>
    </clipPath>
  </defs>
  <g class="cls-7">
    <g id="Layer_1" data-name="Layer 1">
      <g class="cls-14">
        <rect class="cls-5" x="38.99" y="5.7" width="768" height="131"/>
        <g class="cls-6">
          <rect class="cls-5" y="0" width="33.18" height="151.67"/>
          <rect class="cls-5" x="90.31" y="0" width="33.18" height="151.67"/>
          <rect class="cls-5" x="180.62" y="0" width="33.18" height="151.67"/>
          <rect class="cls-5" x="270.93" y="0" width="33.18" height="151.67"/>
          <rect class="cls-5" x="361.24" width="33.18" height="151.67"/>
          <rect class="cls-5" x="451.56" y="0" width="33.18" height="151.67"/>
          <rect class="cls-5" x="541.87" y="0" width="33.18" height="151.67"/>
          <rect class="cls-5" x="632.18" y="0" width="33.18" height="151.67"/>
          <rect class="cls-5" x="722.49" y="0" width="33.18" height="151.67"/>
          <rect class="cls-5" x="812.8" y="0" width="33.18" height="151.67"/>
        </g>
      </g>
      <g>
        <g>
          <path class="cls-9" d="M46.23,19.66c-.1-.79.15-1.61.79-2.35.63-.72,1.55-1.26,2.6-1.6.21-.78.76-1.54,1.68-2.14.89-.59,1.99-.96,3.14-1.11.51-.72,1.34-1.35,2.45-1.77.96-.37,2-.54,3.04-.54.14,0,.28.01.42.02.77-.61,1.82-1.08,3.07-1.3.53-.09,1.05-.14,1.58-.14.68,0,1.35.08,1.98.22.98-.45,2.17-.72,3.46-.72s2.43.26,3.4.69c.65-.15,1.34-.24,2.04-.24.52,0,1.05.04,1.57.14,1.22.22,2.25.67,3.02,1.26.17,0,.33-.02.5-.02,1.03,0,2.08.17,3.03.54,1.09.42,1.91,1.03,2.42,1.73,1.18.14,2.3.51,3.21,1.11.89.59,1.45,1.33,1.67,2.09,1.08.34,2.03.88,2.67,1.62.63.73.88,1.53.79,2.31.84.47,1.49,1.1,1.85,1.84h-1.33c-.21-.33-.48-.64-.82-.9-.15.31-.36.61-.62.9h-1.54c.56-.43.96-.94,1.13-1.49-1.11-.47-2.5-.65-3.86-.41l-.16-.4-.64-.43c1.02-.68,1.47-1.58,1.39-2.47-1.26-.26-2.66-.2-3.89.27l-.31-.36-.79-.3c.72-.83.8-1.78.38-2.63-1.32-.04-2.65.26-3.65.93l-.44-.29-.88-.16c.37-.93.08-1.86-.66-2.6-1.29.19-2.46.71-3.17,1.53l-.54-.21h-.91c0-.96-.64-1.81-1.65-2.4-1.17.4-2.1,1.11-2.47,2.02l-.61-.11-.88.16c-.37-.93-1.33-1.64-2.53-2.04-.97.59-1.59,1.43-1.59,2.37h-.63l-.79.3c-.72-.83-1.92-1.35-3.23-1.53-.71.74-.98,1.66-.62,2.57l-.61.11-.64.43c-1.02-.68-2.38-.98-3.72-.92-.4.83-.3,1.77.41,2.58l-.55.21-.45.53c-1.25-.48-2.68-.53-3.96-.25-.06.87.4,1.76,1.4,2.43l-.45.3-.24.58c-1.25-.22-2.56-.11-3.69.32-.09.03-.15.08-.24.11.15.46.47.9.9,1.28h-1.45c-.18-.22-.34-.45-.46-.68-.27.21-.49.44-.67.68h-1.34c.36-.64.93-1.2,1.69-1.64ZM90.42,18.5c.13,0,.27-.02.4-.02.95,0,1.87.16,2.7.43-.05-.46-.25-.93-.62-1.36-.39-.44-.92-.79-1.52-1.06-.05.7-.36,1.4-.95,2.01ZM86.73,15.35c.64-.14,1.29-.22,1.95-.22.41,0,.81.04,1.21.09-.23-.44-.6-.85-1.13-1.2-.55-.36-1.2-.61-1.89-.76.22.69.2,1.41-.14,2.1ZM81.26,10.89c.48.62.74,1.32.68,2.05.91-.4,1.95-.61,3-.66-.4-.39-.91-.73-1.56-.98-.67-.26-1.39-.38-2.12-.41ZM74.92,9.57c.71.52,1.23,1.15,1.46,1.87.72-.55,1.63-.94,2.63-1.16-.53-.3-1.16-.54-1.88-.67-.75-.13-1.49-.13-2.2-.03ZM68.28,9.39c.89.38,1.63.91,2.13,1.56.48-.66,1.22-1.19,2.1-1.58-.64-.2-1.34-.32-2.09-.32s-1.49.13-2.14.34ZM61.8,10.36c1,.21,1.92.6,2.65,1.14.21-.72.72-1.36,1.42-1.88-.69-.09-1.42-.09-2.15.04-.74.13-1.39.38-1.93.7ZM55.91,12.41c1.05.03,2.09.24,3.01.63-.07-.73.17-1.43.64-2.06-.7.04-1.41.16-2.06.41-.67.26-1.2.61-1.6,1.01ZM51.02,15.39c.42-.06.85-.1,1.28-.1.63,0,1.26.07,1.87.21-.36-.69-.39-1.41-.19-2.1-.67.16-1.29.4-1.83.75-.54.36-.91.79-1.14,1.24ZM47.46,19.12c.86-.29,1.8-.45,2.76-.45l.33.02c-.61-.61-.93-1.3-1-2-.58.26-1.1.61-1.47,1.04-.38.44-.57.92-.62,1.4Z"/>
          <path class="cls-9" d="M49.47,21.3c3.06-5.73,11.27-9.84,20.95-9.84s17.89,4.11,20.95,9.84h-41.89ZM85.95,19.36s.28.31.56.61c.3.3.51.63.51.63l1.23-.41s-.23-.36-.55-.68l-.6-.66-1.15.5ZM83.47,17.35s1.48,1.05,1.45,1.07l1.08-.57s-.08-.08-.22-.19c-.15-.11-.34-.25-.54-.39-.2-.14-.39-.29-.54-.39-.14-.11-.25-.17-.25-.17l-.97.65ZM80.44,15.75s1.76.84,1.76.84l.88-.71s-1.85-.94-1.89-.9l-.75.77ZM76.99,14.6s.13.03.32.08c.19.04.44.11.68.19.49.16.98.31.98.31l.64-.81s-.52-.17-1.05-.34c-.26-.09-.53-.16-.74-.21-.21-.05-.34-.08-.34-.08l-.49.86ZM73.22,13.95s.54.05,1.07.12c.52.09,1.05.18,1.05.18l.36-.88s-.56-.1-1.13-.19c-.57-.08-1.15-.12-1.15-.12l-.21.91ZM69.26,12.91l.08.92s.54-.02,1.08-.04c.54.02,1.08.04,1.08.04l.08-.92s-.58-.02-1.16-.04c-.58.02-1.16.04-1.16.04ZM65.17,13.35l.36.88s.52-.09,1.05-.18c.53-.06,1.07-.11,1.07-.11l-.21-.91s-.58.05-1.15.12l-1.13.19ZM61.26,14.36l.63.81s.49-.16.97-.31c.24-.08.49-.15.69-.19.19-.05.32-.08.32-.08l-.49-.86s-.14.03-.34.08c-.21.05-.48.12-.74.21-.52.17-1.05.34-1.05.34ZM57.78,15.88l.87.71s1.72-.87,1.76-.84l-.74-.77s-1.89.9-1.89.9ZM54.86,17.84l1.08.57s.07-.08.21-.18c.14-.1.32-.23.5-.37.18-.13.36-.27.5-.37.13-.1.24-.16.24-.16l-.97-.65s-.11.06-.25.17c-.15.11-.34.25-.54.39-.2.14-.39.29-.54.39-.15.11-.22.19-.22.19ZM52.6,20.19l1.23.41c-.05-.02,1.07-1.25,1.07-1.25l-1.15-.5s-.3.33-.6.66c-.32.32-.55.68-.55.68Z"/>
        </g>
        <g>
          <path class="cls-9" d="M97.23,19.66c-.1-.79.15-1.61.79-2.35.63-.72,1.55-1.26,2.6-1.6.21-.78.76-1.54,1.68-2.14.89-.59,1.99-.96,3.14-1.11.51-.72,1.34-1.35,2.45-1.77.96-.37,2-.54,3.04-.54.14,0,.28.01.42.02.77-.61,1.82-1.08,3.07-1.3.53-.09,1.05-.14,1.58-.14.68,0,1.35.08,1.98.22.98-.45,2.17-.72,3.46-.72s2.43.26,3.4.69c.65-.15,1.34-.24,2.04-.24.52,0,1.05.04,1.57.14,1.22.22,2.25.67,3.02,1.26.17,0,.33-.02.5-.02,1.03,0,2.08.17,3.03.54,1.09.42,1.91,1.03,2.42,1.73,1.18.14,2.3.51,3.21,1.11.89.59,1.45,1.33,1.67,2.09,1.08.34,2.03.88,2.67,1.62.63.73.88,1.53.79,2.31.84.47,1.49,1.1,1.85,1.84h-1.33c-.21-.33-.48-.64-.82-.9-.15.31-.36.61-.62.9h-1.54c.56-.43.96-.94,1.13-1.49-1.11-.47-2.5-.65-3.86-.41l-.16-.4-.64-.43c1.02-.68,1.47-1.58,1.39-2.47-1.26-.26-2.66-.2-3.89.27l-.31-.36-.79-.3c.72-.83.8-1.78.38-2.63-1.32-.04-2.65.26-3.65.93l-.44-.29-.88-.16c.37-.93.08-1.86-.66-2.6-1.29.19-2.46.71-3.17,1.53l-.54-.21h-.91c0-.96-.64-1.81-1.65-2.4-1.17.4-2.1,1.11-2.47,2.02l-.61-.11-.88.16c-.37-.93-1.33-1.64-2.53-2.04-.97.59-1.59,1.43-1.59,2.37h-.63l-.79.3c-.72-.83-1.92-1.35-3.23-1.53-.71.74-.98,1.66-.62,2.57l-.61.11-.64.43c-1.02-.68-2.38-.98-3.72-.92-.4.83-.3,1.77.41,2.58l-.55.21-.45.53c-1.25-.48-2.68-.53-3.96-.25-.06.87.4,1.76,1.4,2.43l-.45.3-.24.58c-1.25-.22-2.56-.11-3.69.32-.09.03-.15.08-.24.11.15.46.47.9.9,1.28h-1.45c-.18-.22-.34-.45-.46-.68-.27.21-.49.44-.67.68h-1.34c.36-.64.93-1.2,1.69-1.64ZM141.42,18.5c.13,0,.27-.02.4-.02.95,0,1.87.16,2.7.43-.05-.46-.25-.93-.62-1.36-.39-.44-.92-.79-1.52-1.06-.05.7-.36,1.4-.95,2.01ZM137.73,15.35c.64-.14,1.29-.22,1.95-.22.41,0,.81.04,1.21.09-.23-.44-.6-.85-1.13-1.2-.55-.36-1.2-.61-1.89-.76.22.69.2,1.41-.14,2.1ZM132.26,10.89c.48.62.74,1.32.68,2.05.91-.4,1.95-.61,3-.66-.4-.39-.91-.73-1.56-.98-.67-.26-1.39-.38-2.12-.41ZM125.92,9.57c.71.52,1.23,1.15,1.46,1.87.72-.55,1.63-.94,2.63-1.16-.53-.3-1.16-.54-1.88-.67-.75-.13-1.49-.13-2.2-.03ZM119.28,9.39c.89.38,1.63.91,2.13,1.56.48-.66,1.22-1.19,2.1-1.58-.64-.2-1.34-.32-2.09-.32s-1.49.13-2.14.34ZM112.8,10.36c1,.21,1.92.6,2.65,1.14.21-.72.72-1.36,1.42-1.88-.69-.09-1.42-.09-2.15.04-.74.13-1.39.38-1.93.7ZM106.91,12.41c1.05.03,2.09.24,3.01.63-.07-.73.17-1.43.64-2.06-.7.04-1.41.16-2.06.41-.67.26-1.2.61-1.6,1.01ZM102.02,15.39c.42-.06.85-.1,1.28-.1.63,0,1.26.07,1.87.21-.36-.69-.39-1.41-.19-2.1-.67.16-1.29.4-1.83.75-.54.36-.91.79-1.14,1.24ZM98.46,19.12c.86-.29,1.8-.45,2.76-.45l.33.02c-.61-.61-.93-1.3-1-2-.58.26-1.1.61-1.47,1.04-.38.44-.57.92-.62,1.4Z"/>
          <path class="cls-9" d="M100.47,21.3c3.06-5.73,11.27-9.84,20.95-9.84s17.89,4.11,20.95,9.84h-41.89ZM136.95,19.36s.28.31.56.61c.3.3.51.63.51.63l1.23-.41s-.23-.36-.55-.68l-.6-.66-1.15.5ZM134.47,17.35s1.48,1.05,1.45,1.07l1.08-.57s-.08-.08-.22-.19c-.15-.11-.34-.25-.54-.39-.2-.14-.39-.29-.54-.39-.14-.11-.25-.17-.25-.17l-.97.65ZM131.44,15.75s1.76.84,1.76.84l.88-.71s-1.85-.94-1.89-.9l-.75.77ZM127.99,14.6s.13.03.32.08c.19.04.44.11.68.19.49.16.98.31.98.31l.64-.81s-.52-.17-1.05-.34c-.26-.09-.53-.16-.74-.21-.21-.05-.34-.08-.34-.08l-.49.86ZM124.22,13.95s.54.05,1.07.12c.52.09,1.05.18,1.05.18l.36-.88s-.56-.1-1.13-.19c-.57-.08-1.15-.12-1.15-.12l-.21.91ZM120.26,12.91l.08.92s.54-.02,1.08-.04c.54.02,1.08.04,1.08.04l.08-.92s-.58-.02-1.16-.04c-.58.02-1.16.04-1.16.04ZM116.17,13.35l.36.88s.52-.09,1.05-.18c.53-.06,1.07-.11,1.07-.11l-.21-.91s-.58.05-1.15.12l-1.13.19ZM112.26,14.36l.63.81s.49-.16.97-.31c.24-.08.49-.15.69-.19.19-.05.32-.08.32-.08l-.49-.86s-.14.03-.34.08c-.21.05-.48.12-.74.21-.52.17-1.05.34-1.05.34ZM108.78,15.88l.87.71s1.72-.87,1.76-.84l-.74-.77s-1.89.9-1.89.9ZM105.86,17.84l1.08.57s.07-.08.21-.18c.14-.1.32-.23.5-.37.18-.13.36-.27.5-.37.13-.1.24-.16.24-.16l-.97-.65s-.11.06-.25.17c-.15.11-.34.25-.54.39-.2.14-.39.29-.54.39-.15.11-.22.19-.22.19ZM103.6,20.19l1.23.41c-.05-.02,1.07-1.25,1.07-1.25l-1.15-.5s-.3.33-.6.66c-.32.32-.55.68-.55.68Z"/>
        </g>
        <g>
          <path class="cls-9" d="M147.23,19.66c-.1-.79.15-1.61.79-2.35.63-.72,1.55-1.26,2.6-1.6.21-.78.76-1.54,1.68-2.14.89-.59,1.99-.96,3.14-1.11.51-.72,1.34-1.35,2.45-1.77.96-.37,2-.54,3.04-.54.14,0,.28.01.42.02.77-.61,1.82-1.08,3.07-1.3.53-.09,1.05-.14,1.58-.14.68,0,1.35.08,1.98.22.98-.45,2.17-.72,3.46-.72s2.43.26,3.4.69c.65-.15,1.34-.24,2.04-.24.52,0,1.05.04,1.57.14,1.22.22,2.25.67,3.02,1.26.17,0,.33-.02.5-.02,1.03,0,2.08.17,3.03.54,1.09.42,1.91,1.03,2.42,1.73,1.18.14,2.3.51,3.21,1.11.89.59,1.45,1.33,1.67,2.09,1.08.34,2.03.88,2.67,1.62.63.73.88,1.53.79,2.31.84.47,1.49,1.1,1.85,1.84h-1.33c-.21-.33-.48-.64-.82-.9-.15.31-.36.61-.62.9h-1.54c.56-.43.96-.94,1.13-1.49-1.11-.47-2.5-.65-3.86-.41l-.16-.4-.64-.43c1.02-.68,1.47-1.58,1.39-2.47-1.26-.26-2.66-.2-3.89.27l-.31-.36-.79-.3c.72-.83.8-1.78.38-2.63-1.32-.04-2.65.26-3.65.93l-.44-.29-.88-.16c.37-.93.08-1.86-.66-2.6-1.29.19-2.46.71-3.17,1.53l-.54-.21h-.91c0-.96-.64-1.81-1.65-2.4-1.17.4-2.1,1.11-2.47,2.02l-.61-.11-.88.16c-.37-.93-1.33-1.64-2.53-2.04-.97.59-1.59,1.43-1.59,2.37h-.63l-.79.3c-.72-.83-1.92-1.35-3.23-1.53-.71.74-.98,1.66-.62,2.57l-.61.11-.64.43c-1.02-.68-2.38-.98-3.72-.92-.4.83-.3,1.77.41,2.58l-.55.21-.45.53c-1.25-.48-2.68-.53-3.96-.25-.06.87.4,1.76,1.4,2.43l-.45.3-.24.58c-1.25-.22-2.56-.11-3.69.32-.09.03-.15.08-.24.11.15.46.47.9.9,1.28h-1.45c-.18-.22-.34-.45-.46-.68-.27.21-.49.44-.67.68h-1.34c.36-.64.93-1.2,1.69-1.64ZM191.42,18.5c.13,0,.27-.02.4-.02.95,0,1.87.16,2.7.43-.05-.46-.25-.93-.62-1.36-.39-.44-.92-.79-1.52-1.06-.05.7-.36,1.4-.95,2.01ZM187.73,15.35c.64-.14,1.29-.22,1.95-.22.41,0,.81.04,1.21.09-.23-.44-.6-.85-1.13-1.2-.55-.36-1.2-.61-1.89-.76.22.69.2,1.41-.14,2.1ZM182.26,10.89c.48.62.74,1.32.68,2.05.91-.4,1.95-.61,3-.66-.4-.39-.91-.73-1.56-.98-.67-.26-1.39-.38-2.12-.41ZM175.92,9.57c.71.52,1.23,1.15,1.46,1.87.72-.55,1.63-.94,2.63-1.16-.53-.3-1.16-.54-1.88-.67-.75-.13-1.49-.13-2.2-.03ZM169.28,9.39c.89.38,1.63.91,2.13,1.56.48-.66,1.22-1.19,2.1-1.58-.64-.2-1.34-.32-2.09-.32s-1.49.13-2.14.34ZM162.8,10.36c1,.21,1.92.6,2.65,1.14.21-.72.72-1.36,1.42-1.88-.69-.09-1.42-.09-2.15.04-.74.13-1.39.38-1.93.7ZM156.91,12.41c1.05.03,2.09.24,3.01.63-.07-.73.17-1.43.64-2.06-.7.04-1.41.16-2.06.41-.67.26-1.2.61-1.6,1.01ZM152.02,15.39c.42-.06.85-.1,1.28-.1.63,0,1.26.07,1.87.21-.36-.69-.39-1.41-.19-2.1-.67.16-1.29.4-1.83.75-.54.36-.91.79-1.14,1.24ZM148.46,19.12c.86-.29,1.8-.45,2.76-.45l.33.02c-.61-.61-.93-1.3-1-2-.58.26-1.1.61-1.47,1.04-.38.44-.57.92-.62,1.4Z"/>
          <path class="cls-9" d="M150.47,21.3c3.06-5.73,11.27-9.84,20.95-9.84s17.89,4.11,20.95,9.84h-41.89ZM186.95,19.36s.28.31.56.61c.3.3.51.63.51.63l1.23-.41s-.23-.36-.55-.68l-.6-.66-1.15.5ZM184.47,17.35s1.48,1.05,1.45,1.07l1.08-.57s-.08-.08-.22-.19c-.15-.11-.34-.25-.54-.39-.2-.14-.39-.29-.54-.39-.14-.11-.25-.17-.25-.17l-.97.65ZM181.44,15.75s1.76.84,1.76.84l.88-.71s-1.85-.94-1.89-.9l-.75.77ZM177.99,14.6s.13.03.32.08c.19.04.44.11.68.19.49.16.98.31.98.31l.64-.81s-.52-.17-1.05-.34c-.26-.09-.53-.16-.74-.21-.21-.05-.34-.08-.34-.08l-.49.86ZM174.22,13.95s.54.05,1.07.12c.52.09,1.05.18,1.05.18l.36-.88s-.56-.1-1.13-.19c-.57-.08-1.15-.12-1.15-.12l-.21.91ZM170.26,12.91l.08.92s.54-.02,1.08-.04c.54.02,1.08.04,1.08.04l.08-.92s-.58-.02-1.16-.04c-.58.02-1.16.04-1.16.04ZM166.17,13.35l.36.88s.52-.09,1.05-.18c.53-.06,1.07-.11,1.07-.11l-.21-.91s-.58.05-1.15.12l-1.13.19ZM162.26,14.36l.63.81s.49-.16.97-.31c.24-.08.49-.15.69-.19.19-.05.32-.08.32-.08l-.49-.86s-.14.03-.34.08c-.21.05-.48.12-.74.21-.52.17-1.05.34-1.05.34ZM158.78,15.88l.87.71s1.72-.87,1.76-.84l-.74-.77s-1.89.9-1.89.9ZM155.86,17.84l1.08.57s.07-.08.21-.18c.14-.1.32-.23.5-.37.18-.13.36-.27.5-.37.13-.1.24-.16.24-.16l-.97-.65s-.11.06-.25.17c-.15.11-.34.25-.54.39-.2.14-.39.29-.54.39-.15.11-.22.19-.22.19ZM153.6,20.19l1.23.41c-.05-.02,1.07-1.25,1.07-1.25l-1.15-.5s-.3.33-.6.66c-.32.32-.55.68-.55.68Z"/>
        </g>
        <g>
          <path class="cls-9" d="M199.23,19.66c-.1-.79.15-1.61.79-2.35.63-.72,1.55-1.26,2.6-1.6.21-.78.76-1.54,1.68-2.14.89-.59,1.99-.96,3.14-1.11.51-.72,1.34-1.35,2.45-1.77.96-.37,2-.54,3.04-.54.14,0,.28.01.42.02.77-.61,1.82-1.08,3.07-1.3.53-.09,1.05-.14,1.58-.14.68,0,1.35.08,1.98.22.98-.45,2.17-.72,3.46-.72s2.43.26,3.4.69c.65-.15,1.34-.24,2.04-.24.52,0,1.05.04,1.57.14,1.22.22,2.25.67,3.02,1.26.17,0,.33-.02.5-.02,1.03,0,2.08.17,3.03.54,1.09.42,1.91,1.03,2.42,1.73,1.18.14,2.3.51,3.21,1.11.89.59,1.45,1.33,1.67,2.09,1.08.34,2.03.88,2.67,1.62.63.73.88,1.53.79,2.31.84.47,1.49,1.1,1.85,1.84h-1.33c-.21-.33-.48-.64-.82-.9-.15.31-.36.61-.62.9h-1.54c.56-.43.96-.94,1.13-1.49-1.11-.47-2.5-.65-3.86-.41l-.16-.4-.64-.43c1.02-.68,1.47-1.58,1.39-2.47-1.26-.26-2.66-.2-3.89.27l-.31-.36-.79-.3c.72-.83.8-1.78.38-2.63-1.32-.04-2.65.26-3.65.93l-.44-.29-.88-.16c.37-.93.08-1.86-.66-2.6-1.29.19-2.46.71-3.17,1.53l-.54-.21h-.91c0-.96-.64-1.81-1.65-2.4-1.17.4-2.1,1.11-2.47,2.02l-.61-.11-.88.16c-.37-.93-1.33-1.64-2.53-2.04-.97.59-1.59,1.43-1.59,2.37h-.63l-.79.3c-.72-.83-1.92-1.35-3.23-1.53-.71.74-.98,1.66-.62,2.57l-.61.11-.64.43c-1.02-.68-2.38-.98-3.72-.92-.4.83-.3,1.77.41,2.58l-.55.21-.45.53c-1.25-.48-2.68-.53-3.96-.25-.06.87.4,1.76,1.4,2.43l-.45.3-.24.58c-1.25-.22-2.56-.11-3.69.32-.09.03-.15.08-.24.11.15.46.47.9.9,1.28h-1.45c-.18-.22-.34-.45-.46-.68-.27.21-.49.44-.67.68h-1.34c.36-.64.93-1.2,1.69-1.64ZM243.42,18.5c.13,0,.27-.02.4-.02.95,0,1.87.16,2.7.43-.05-.46-.25-.93-.62-1.36-.39-.44-.92-.79-1.52-1.06-.05.7-.36,1.4-.95,2.01ZM239.73,15.35c.64-.14,1.29-.22,1.95-.22.41,0,.81.04,1.21.09-.23-.44-.6-.85-1.13-1.2-.55-.36-1.2-.61-1.89-.76.22.69.2,1.41-.14,2.1ZM234.26,10.89c.48.62.74,1.32.68,2.05.91-.4,1.95-.61,3-.66-.4-.39-.91-.73-1.56-.98-.67-.26-1.39-.38-2.12-.41ZM227.92,9.57c.71.52,1.23,1.15,1.46,1.87.72-.55,1.63-.94,2.63-1.16-.53-.3-1.16-.54-1.88-.67-.75-.13-1.49-.13-2.2-.03ZM221.28,9.39c.89.38,1.63.91,2.13,1.56.48-.66,1.22-1.19,2.1-1.58-.64-.2-1.34-.32-2.09-.32s-1.49.13-2.14.34ZM214.8,10.36c1,.21,1.92.6,2.65,1.14.21-.72.72-1.36,1.42-1.88-.69-.09-1.42-.09-2.15.04-.74.13-1.39.38-1.93.7ZM208.91,12.41c1.05.03,2.09.24,3.01.63-.07-.73.17-1.43.64-2.06-.7.04-1.41.16-2.06.41-.67.26-1.2.61-1.6,1.01ZM204.02,15.39c.42-.06.85-.1,1.28-.1.63,0,1.26.07,1.87.21-.36-.69-.39-1.41-.19-2.1-.67.16-1.29.4-1.83.75-.54.36-.91.79-1.14,1.24ZM200.46,19.12c.86-.29,1.8-.45,2.76-.45l.33.02c-.61-.61-.93-1.3-1-2-.58.26-1.1.61-1.47,1.04-.38.44-.57.92-.62,1.4Z"/>
          <path class="cls-9" d="M202.47,21.3c3.06-5.73,11.27-9.84,20.95-9.84s17.89,4.11,20.95,9.84h-41.89ZM238.95,19.36s.28.31.56.61c.3.3.51.63.51.63l1.23-.41s-.23-.36-.55-.68l-.6-.66-1.15.5ZM236.47,17.35s1.48,1.05,1.45,1.07l1.08-.57s-.08-.08-.22-.19c-.15-.11-.34-.25-.54-.39-.2-.14-.39-.29-.54-.39-.14-.11-.25-.17-.25-.17l-.97.65ZM233.44,15.75s1.76.84,1.76.84l.88-.71s-1.85-.94-1.89-.9l-.75.77ZM229.99,14.6s.13.03.32.08c.19.04.44.11.68.19.49.16.98.31.98.31l.64-.81s-.52-.17-1.05-.34c-.26-.09-.53-.16-.74-.21-.21-.05-.34-.08-.34-.08l-.49.86ZM226.22,13.95s.54.05,1.07.12c.52.09,1.05.18,1.05.18l.36-.88s-.56-.1-1.13-.19c-.57-.08-1.15-.12-1.15-.12l-.21.91ZM222.26,12.91l.08.92s.54-.02,1.08-.04c.54.02,1.08.04,1.08.04l.08-.92s-.58-.02-1.16-.04c-.58.02-1.16.04-1.16.04ZM218.17,13.35l.36.88s.52-.09,1.05-.18c.53-.06,1.07-.11,1.07-.11l-.21-.91s-.58.05-1.15.12l-1.13.19ZM214.26,14.36l.63.81s.49-.16.97-.31c.24-.08.49-.15.69-.19.19-.05.32-.08.32-.08l-.49-.86s-.14.03-.34.08c-.21.05-.48.12-.74.21-.52.17-1.05.34-1.05.34ZM210.78,15.88l.87.71s1.72-.87,1.76-.84l-.74-.77s-1.89.9-1.89.9ZM207.86,17.84l1.08.57s.07-.08.21-.18c.14-.1.32-.23.5-.37.18-.13.36-.27.5-.37.13-.1.24-.16.24-.16l-.97-.65s-.11.06-.25.17c-.15.11-.34.25-.54.39-.2.14-.39.29-.54.39-.15.11-.22.19-.22.19ZM205.6,20.19l1.23.41c-.05-.02,1.07-1.25,1.07-1.25l-1.15-.5s-.3.33-.6.66c-.32.32-.55.68-.55.68Z"/>
        </g>
        <g>
          <path class="cls-9" d="M250.23,19.66c-.1-.79.15-1.61.79-2.35.63-.72,1.55-1.26,2.6-1.6.21-.78.76-1.54,1.68-2.14.89-.59,1.99-.96,3.14-1.11.51-.72,1.34-1.35,2.45-1.77.96-.37,2-.54,3.04-.54.14,0,.28.01.42.02.77-.61,1.82-1.08,3.07-1.3.53-.09,1.05-.14,1.58-.14.68,0,1.35.08,1.98.22.98-.45,2.17-.72,3.46-.72s2.43.26,3.4.69c.65-.15,1.34-.24,2.04-.24.52,0,1.05.04,1.57.14,1.22.22,2.25.67,3.02,1.26.17,0,.33-.02.5-.02,1.03,0,2.08.17,3.03.54,1.09.42,1.91,1.03,2.42,1.73,1.18.14,2.3.51,3.21,1.11.89.59,1.45,1.33,1.67,2.09,1.08.34,2.03.88,2.67,1.62.63.73.88,1.53.79,2.31.84.47,1.49,1.1,1.85,1.84h-1.33c-.21-.33-.48-.64-.82-.9-.15.31-.36.61-.62.9h-1.54c.56-.43.96-.94,1.13-1.49-1.11-.47-2.5-.65-3.86-.41l-.16-.4-.64-.43c1.02-.68,1.47-1.58,1.39-2.47-1.26-.26-2.66-.2-3.89.27l-.31-.36-.79-.3c.72-.83.8-1.78.38-2.63-1.32-.04-2.65.26-3.65.93l-.44-.29-.88-.16c.37-.93.08-1.86-.66-2.6-1.29.19-2.46.71-3.17,1.53l-.54-.21h-.91c0-.96-.64-1.81-1.65-2.4-1.17.4-2.1,1.11-2.47,2.02l-.61-.11-.88.16c-.37-.93-1.33-1.64-2.53-2.04-.97.59-1.59,1.43-1.59,2.37h-.63l-.79.3c-.72-.83-1.92-1.35-3.23-1.53-.71.74-.98,1.66-.62,2.57l-.61.11-.64.43c-1.02-.68-2.38-.98-3.72-.92-.4.83-.3,1.77.41,2.58l-.55.21-.45.53c-1.25-.48-2.68-.53-3.96-.25-.06.87.4,1.76,1.4,2.43l-.45.3-.24.58c-1.25-.22-2.56-.11-3.69.32-.09.03-.15.08-.24.11.15.46.47.9.9,1.28h-1.45c-.18-.22-.34-.45-.46-.68-.27.21-.49.44-.67.68h-1.34c.36-.64.93-1.2,1.69-1.64ZM294.42,18.5c.13,0,.27-.02.4-.02.95,0,1.87.16,2.7.43-.05-.46-.25-.93-.62-1.36-.39-.44-.92-.79-1.52-1.06-.05.7-.36,1.4-.95,2.01ZM290.73,15.35c.64-.14,1.29-.22,1.95-.22.41,0,.81.04,1.21.09-.23-.44-.6-.85-1.13-1.2-.55-.36-1.2-.61-1.89-.76.22.69.2,1.41-.14,2.1ZM285.26,10.89c.48.62.74,1.32.68,2.05.91-.4,1.95-.61,3-.66-.4-.39-.91-.73-1.56-.98-.67-.26-1.39-.38-2.12-.41ZM278.92,9.57c.71.52,1.23,1.15,1.46,1.87.72-.55,1.63-.94,2.63-1.16-.53-.3-1.16-.54-1.88-.67-.75-.13-1.49-.13-2.2-.03ZM272.28,9.39c.89.38,1.63.91,2.13,1.56.48-.66,1.22-1.19,2.1-1.58-.64-.2-1.34-.32-2.09-.32s-1.49.13-2.14.34ZM265.8,10.36c1,.21,1.92.6,2.65,1.14.21-.72.72-1.36,1.42-1.88-.69-.09-1.42-.09-2.15.04-.74.13-1.39.38-1.93.7ZM259.91,12.41c1.05.03,2.09.24,3.01.63-.07-.73.17-1.43.64-2.06-.7.04-1.41.16-2.06.41-.67.26-1.2.61-1.6,1.01ZM255.02,15.39c.42-.06.85-.1,1.28-.1.63,0,1.26.07,1.87.21-.36-.69-.39-1.41-.19-2.1-.67.16-1.29.4-1.83.75-.54.36-.91.79-1.14,1.24ZM251.46,19.12c.86-.29,1.8-.45,2.76-.45l.33.02c-.61-.61-.93-1.3-1-2-.58.26-1.1.61-1.47,1.04-.38.44-.57.92-.62,1.4Z"/>
          <path class="cls-9" d="M253.47,21.3c3.06-5.73,11.27-9.84,20.95-9.84s17.89,4.11,20.95,9.84h-41.89ZM289.95,19.36s.28.31.56.61c.3.3.51.63.51.63l1.23-.41s-.23-.36-.55-.68l-.6-.66-1.15.5ZM287.47,17.35s1.48,1.05,1.45,1.07l1.08-.57s-.08-.08-.22-.19c-.15-.11-.34-.25-.54-.39-.2-.14-.39-.29-.54-.39-.14-.11-.25-.17-.25-.17l-.97.65ZM284.44,15.75s1.76.84,1.76.84l.88-.71s-1.85-.94-1.89-.9l-.75.77ZM280.99,14.6s.13.03.32.08c.19.04.44.11.68.19.49.16.98.31.98.31l.64-.81s-.52-.17-1.05-.34c-.26-.09-.53-.16-.74-.21-.21-.05-.34-.08-.34-.08l-.49.86ZM277.22,13.95s.54.05,1.07.12c.52.09,1.05.18,1.05.18l.36-.88s-.56-.1-1.13-.19c-.57-.08-1.15-.12-1.15-.12l-.21.91ZM273.26,12.91l.08.92s.54-.02,1.08-.04c.54.02,1.08.04,1.08.04l.08-.92s-.58-.02-1.16-.04c-.58.02-1.16.04-1.16.04ZM269.17,13.35l.36.88s.52-.09,1.05-.18c.53-.06,1.07-.11,1.07-.11l-.21-.91s-.58.05-1.15.12l-1.13.19ZM265.26,14.36l.63.81s.49-.16.97-.31c.24-.08.49-.15.69-.19.19-.05.32-.08.32-.08l-.49-.86s-.14.03-.34.08c-.21.05-.48.12-.74.21-.52.17-1.05.34-1.05.34ZM261.78,15.88l.87.71s1.72-.87,1.76-.84l-.74-.77s-1.89.9-1.89.9ZM258.86,17.84l1.08.57s.07-.08.21-.18c.14-.1.32-.23.5-.37.18-.13.36-.27.5-.37.13-.1.24-.16.24-.16l-.97-.65s-.11.06-.25.17c-.15.11-.34.25-.54.39-.2.14-.39.29-.54.39-.15.11-.22.19-.22.19ZM256.6,20.19l1.23.41c-.05-.02,1.07-1.25,1.07-1.25l-1.15-.5s-.3.33-.6.66c-.32.32-.55.68-.55.68Z"/>
        </g>
        <g>
          <path class="cls-9" d="M300.23,19.66c-.1-.79.15-1.61.79-2.35.63-.72,1.55-1.26,2.6-1.6.21-.78.76-1.54,1.68-2.14.89-.59,1.99-.96,3.14-1.11.51-.72,1.34-1.35,2.45-1.77.96-.37,2-.54,3.04-.54.14,0,.28.01.42.02.77-.61,1.82-1.08,3.07-1.3.53-.09,1.05-.14,1.58-.14.68,0,1.35.08,1.98.22.98-.45,2.17-.72,3.46-.72s2.43.26,3.4.69c.65-.15,1.34-.24,2.04-.24.52,0,1.05.04,1.57.14,1.22.22,2.25.67,3.02,1.26.17,0,.33-.02.5-.02,1.03,0,2.08.17,3.03.54,1.09.42,1.91,1.03,2.42,1.73,1.18.14,2.3.51,3.21,1.11.89.59,1.45,1.33,1.67,2.09,1.08.34,2.03.88,2.67,1.62.63.73.88,1.53.79,2.31.84.47,1.49,1.1,1.85,1.84h-1.33c-.21-.33-.48-.64-.82-.9-.15.31-.36.61-.62.9h-1.54c.56-.43.96-.94,1.13-1.49-1.11-.47-2.5-.65-3.86-.41l-.16-.4-.64-.43c1.02-.68,1.47-1.58,1.39-2.47-1.26-.26-2.66-.2-3.89.27l-.31-.36-.79-.3c.72-.83.8-1.78.38-2.63-1.32-.04-2.65.26-3.65.93l-.44-.29-.88-.16c.37-.93.08-1.86-.66-2.6-1.29.19-2.46.71-3.17,1.53l-.54-.21h-.91c0-.96-.64-1.81-1.65-2.4-1.17.4-2.1,1.11-2.47,2.02l-.61-.11-.88.16c-.37-.93-1.33-1.64-2.53-2.04-.97.59-1.59,1.43-1.59,2.37h-.63l-.79.3c-.72-.83-1.92-1.35-3.23-1.53-.71.74-.98,1.66-.62,2.57l-.61.11-.64.43c-1.02-.68-2.38-.98-3.72-.92-.4.83-.3,1.77.41,2.58l-.55.21-.45.53c-1.25-.48-2.68-.53-3.96-.25-.06.87.4,1.76,1.4,2.43l-.45.3-.24.58c-1.25-.22-2.56-.11-3.69.32-.09.03-.15.08-.24.11.15.46.47.9.9,1.28h-1.45c-.18-.22-.34-.45-.46-.68-.27.21-.49.44-.67.68h-1.34c.36-.64.93-1.2,1.69-1.64ZM344.42,18.5c.13,0,.27-.02.4-.02.95,0,1.87.16,2.7.43-.05-.46-.25-.93-.62-1.36-.39-.44-.92-.79-1.52-1.06-.05.7-.36,1.4-.95,2.01ZM340.73,15.35c.64-.14,1.29-.22,1.95-.22.41,0,.81.04,1.21.09-.23-.44-.6-.85-1.13-1.2-.55-.36-1.2-.61-1.89-.76.22.69.2,1.41-.14,2.1ZM335.26,10.89c.48.62.74,1.32.68,2.05.91-.4,1.95-.61,3-.66-.4-.39-.91-.73-1.56-.98-.67-.26-1.39-.38-2.12-.41ZM328.92,9.57c.71.52,1.23,1.15,1.46,1.87.72-.55,1.63-.94,2.63-1.16-.53-.3-1.16-.54-1.88-.67-.75-.13-1.49-.13-2.2-.03ZM322.28,9.39c.89.38,1.63.91,2.13,1.56.48-.66,1.22-1.19,2.1-1.58-.64-.2-1.34-.32-2.09-.32s-1.49.13-2.14.34ZM315.8,10.36c1,.21,1.92.6,2.65,1.14.21-.72.72-1.36,1.42-1.88-.69-.09-1.42-.09-2.15.04-.74.13-1.39.38-1.93.7ZM309.91,12.41c1.05.03,2.09.24,3.01.63-.07-.73.17-1.43.64-2.06-.7.04-1.41.16-2.06.41-.67.26-1.2.61-1.6,1.01ZM305.02,15.39c.42-.06.85-.1,1.28-.1.63,0,1.26.07,1.87.21-.36-.69-.39-1.41-.19-2.1-.67.16-1.29.4-1.83.75-.54.36-.91.79-1.14,1.24ZM301.46,19.12c.86-.29,1.8-.45,2.76-.45l.33.02c-.61-.61-.93-1.3-1-2-.58.26-1.1.61-1.47,1.04-.38.44-.57.92-.62,1.4Z"/>
          <path class="cls-9" d="M303.47,21.3c3.06-5.73,11.27-9.84,20.95-9.84s17.89,4.11,20.95,9.84h-41.89ZM339.95,19.36s.28.31.56.61c.3.3.51.63.51.63l1.23-.41s-.23-.36-.55-.68l-.6-.66-1.15.5ZM337.47,17.35s1.48,1.05,1.45,1.07l1.08-.57s-.08-.08-.22-.19c-.15-.11-.34-.25-.54-.39-.2-.14-.39-.29-.54-.39-.14-.11-.25-.17-.25-.17l-.97.65ZM334.44,15.75s1.76.84,1.76.84l.88-.71s-1.85-.94-1.89-.9l-.75.77ZM330.99,14.6s.13.03.32.08c.19.04.44.11.68.19.49.16.98.31.98.31l.64-.81s-.52-.17-1.05-.34c-.26-.09-.53-.16-.74-.21-.21-.05-.34-.08-.34-.08l-.49.86ZM327.22,13.95s.54.05,1.07.12c.52.09,1.05.18,1.05.18l.36-.88s-.56-.1-1.13-.19c-.57-.08-1.15-.12-1.15-.12l-.21.91ZM323.26,12.91l.08.92s.54-.02,1.08-.04c.54.02,1.08.04,1.08.04l.08-.92s-.58-.02-1.16-.04c-.58.02-1.16.04-1.16.04ZM319.17,13.35l.36.88s.52-.09,1.05-.18c.53-.06,1.07-.11,1.07-.11l-.21-.91s-.58.05-1.15.12l-1.13.19ZM315.26,14.36l.63.81s.49-.16.97-.31c.24-.08.49-.15.69-.19.19-.05.32-.08.32-.08l-.49-.86s-.14.03-.34.08c-.21.05-.48.12-.74.21-.52.17-1.05.34-1.05.34ZM311.78,15.88l.87.71s1.72-.87,1.76-.84l-.74-.77s-1.89.9-1.89.9ZM308.86,17.84l1.08.57s.07-.08.21-.18c.14-.1.32-.23.5-.37.18-.13.36-.27.5-.37.13-.1.24-.16.24-.16l-.97-.65s-.11.06-.25.17c-.15.11-.34.25-.54.39-.2.14-.39.29-.54.39-.15.11-.22.19-.22.19ZM306.6,20.19l1.23.41c-.05-.02,1.07-1.25,1.07-1.25l-1.15-.5s-.3.33-.6.66c-.32.32-.55.68-.55.68Z"/>
        </g>
        <g>
          <path class="cls-9" d="M350.23,19.66c-.1-.79.15-1.61.79-2.35.63-.72,1.55-1.26,2.6-1.6.21-.78.76-1.54,1.68-2.14.89-.59,1.99-.96,3.14-1.11.51-.72,1.34-1.35,2.45-1.77.96-.37,2-.54,3.04-.54.14,0,.28.01.42.02.77-.61,1.82-1.08,3.07-1.3.53-.09,1.05-.14,1.58-.14.68,0,1.35.08,1.98.22.98-.45,2.17-.72,3.46-.72s2.43.26,3.4.69c.65-.15,1.34-.24,2.04-.24.52,0,1.05.04,1.57.14,1.22.22,2.25.67,3.02,1.26.17,0,.33-.02.5-.02,1.03,0,2.08.17,3.03.54,1.09.42,1.91,1.03,2.42,1.73,1.18.14,2.3.51,3.21,1.11.89.59,1.45,1.33,1.67,2.09,1.08.34,2.03.88,2.67,1.62.63.73.88,1.53.79,2.31.84.47,1.49,1.1,1.85,1.84h-1.33c-.21-.33-.48-.64-.82-.9-.15.31-.36.61-.62.9h-1.54c.56-.43.96-.94,1.13-1.49-1.11-.47-2.5-.65-3.86-.41l-.16-.4-.64-.43c1.02-.68,1.47-1.58,1.39-2.47-1.26-.26-2.66-.2-3.89.27l-.31-.36-.79-.3c.72-.83.8-1.78.38-2.63-1.32-.04-2.65.26-3.65.93l-.44-.29-.88-.16c.37-.93.08-1.86-.66-2.6-1.29.19-2.46.71-3.17,1.53l-.54-.21h-.91c0-.96-.64-1.81-1.65-2.4-1.17.4-2.1,1.11-2.47,2.02l-.61-.11-.88.16c-.37-.93-1.33-1.64-2.53-2.04-.97.59-1.59,1.43-1.59,2.37h-.63l-.79.3c-.72-.83-1.92-1.35-3.23-1.53-.71.74-.98,1.66-.62,2.57l-.61.11-.64.43c-1.02-.68-2.38-.98-3.72-.92-.4.83-.3,1.77.41,2.58l-.55.21-.45.53c-1.25-.48-2.68-.53-3.96-.25-.06.87.4,1.76,1.4,2.43l-.45.3-.24.58c-1.25-.22-2.56-.11-3.69.32-.09.03-.15.08-.24.11.15.46.47.9.9,1.28h-1.45c-.18-.22-.34-.45-.46-.68-.27.21-.49.44-.67.68h-1.34c.36-.64.93-1.2,1.69-1.64ZM394.42,18.5c.13,0,.27-.02.4-.02.95,0,1.87.16,2.7.43-.05-.46-.25-.93-.62-1.36-.39-.44-.92-.79-1.52-1.06-.05.7-.36,1.4-.95,2.01ZM390.73,15.35c.64-.14,1.29-.22,1.95-.22.41,0,.81.04,1.21.09-.23-.44-.6-.85-1.13-1.2-.55-.36-1.2-.61-1.89-.76.22.69.2,1.41-.14,2.1ZM385.26,10.89c.48.62.74,1.32.68,2.05.91-.4,1.95-.61,3-.66-.4-.39-.91-.73-1.56-.98-.67-.26-1.39-.38-2.12-.41ZM378.92,9.57c.71.52,1.23,1.15,1.46,1.87.72-.55,1.63-.94,2.63-1.16-.53-.3-1.16-.54-1.88-.67-.75-.13-1.49-.13-2.2-.03ZM372.28,9.39c.89.38,1.63.91,2.13,1.56.48-.66,1.22-1.19,2.1-1.58-.64-.2-1.34-.32-2.09-.32s-1.49.13-2.14.34ZM365.8,10.36c1,.21,1.92.6,2.65,1.14.21-.72.72-1.36,1.42-1.88-.69-.09-1.42-.09-2.15.04-.74.13-1.39.38-1.93.7ZM359.91,12.41c1.05.03,2.09.24,3.01.63-.07-.73.17-1.43.64-2.06-.7.04-1.41.16-2.06.41-.67.26-1.2.61-1.6,1.01ZM355.02,15.39c.42-.06.85-.1,1.28-.1.63,0,1.26.07,1.87.21-.36-.69-.39-1.41-.19-2.1-.67.16-1.29.4-1.83.75-.54.36-.91.79-1.14,1.24ZM351.46,19.12c.86-.29,1.8-.45,2.76-.45l.33.02c-.61-.61-.93-1.3-1-2-.58.26-1.1.61-1.47,1.04-.38.44-.57.92-.62,1.4Z"/>
          <path class="cls-9" d="M353.47,21.3c3.06-5.73,11.27-9.84,20.95-9.84s17.89,4.11,20.95,9.84h-41.89ZM389.95,19.36s.28.31.56.61c.3.3.51.63.51.63l1.23-.41s-.23-.36-.55-.68l-.6-.66-1.15.5ZM387.47,17.35s1.48,1.05,1.45,1.07l1.08-.57s-.08-.08-.22-.19c-.15-.11-.34-.25-.54-.39-.2-.14-.39-.29-.54-.39-.14-.11-.25-.17-.25-.17l-.97.65ZM384.44,15.75s1.76.84,1.76.84l.88-.71s-1.85-.94-1.89-.9l-.75.77ZM380.99,14.6s.13.03.32.08c.19.04.44.11.68.19.49.16.98.31.98.31l.64-.81s-.52-.17-1.05-.34c-.26-.09-.53-.16-.74-.21-.21-.05-.34-.08-.34-.08l-.49.86ZM377.22,13.95s.54.05,1.07.12c.52.09,1.05.18,1.05.18l.36-.88s-.56-.1-1.13-.19c-.57-.08-1.15-.12-1.15-.12l-.21.91ZM373.26,12.91l.08.92s.54-.02,1.08-.04c.54.02,1.08.04,1.08.04l.08-.92s-.58-.02-1.16-.04c-.58.02-1.16.04-1.16.04ZM369.17,13.35l.36.88s.52-.09,1.05-.18c.53-.06,1.07-.11,1.07-.11l-.21-.91s-.58.05-1.15.12l-1.13.19ZM365.26,14.36l.63.81s.49-.16.97-.31c.24-.08.49-.15.69-.19.19-.05.32-.08.32-.08l-.49-.86s-.14.03-.34.08c-.21.05-.48.12-.74.21-.52.17-1.05.34-1.05.34ZM361.78,15.88l.87.71s1.72-.87,1.76-.84l-.74-.77s-1.89.9-1.89.9ZM358.86,17.84l1.08.57s.07-.08.21-.18c.14-.1.32-.23.5-.37.18-.13.36-.27.5-.37.13-.1.24-.16.24-.16l-.97-.65s-.11.06-.25.17c-.15.11-.34.25-.54.39-.2.14-.39.29-.54.39-.15.11-.22.19-.22.19ZM356.6,20.19l1.23.41c-.05-.02,1.07-1.25,1.07-1.25l-1.15-.5s-.3.33-.6.66c-.32.32-.55.68-.55.68Z"/>
        </g>
        <g>
          <path class="cls-9" d="M401.23,19.66c-.1-.79.15-1.61.79-2.35.63-.72,1.55-1.26,2.6-1.6.21-.78.76-1.54,1.68-2.14.89-.59,1.99-.96,3.14-1.11.51-.72,1.34-1.35,2.45-1.77.96-.37,2-.54,3.04-.54.14,0,.28.01.42.02.77-.61,1.82-1.08,3.07-1.3.53-.09,1.05-.14,1.58-.14.68,0,1.35.08,1.98.22.98-.45,2.17-.72,3.46-.72s2.43.26,3.4.69c.65-.15,1.34-.24,2.04-.24.52,0,1.05.04,1.57.14,1.22.22,2.25.67,3.02,1.26.17,0,.33-.02.5-.02,1.03,0,2.08.17,3.03.54,1.09.42,1.91,1.03,2.42,1.73,1.18.14,2.3.51,3.21,1.11.89.59,1.45,1.33,1.67,2.09,1.08.34,2.03.88,2.67,1.62.63.73.88,1.53.79,2.31.84.47,1.49,1.1,1.85,1.84h-1.33c-.21-.33-.48-.64-.82-.9-.15.31-.36.61-.62.9h-1.54c.56-.43.96-.94,1.13-1.49-1.11-.47-2.5-.65-3.86-.41l-.16-.4-.64-.43c1.02-.68,1.47-1.58,1.39-2.47-1.26-.26-2.66-.2-3.89.27l-.31-.36-.79-.3c.72-.83.8-1.78.38-2.63-1.32-.04-2.65.26-3.65.93l-.44-.29-.88-.16c.37-.93.08-1.86-.66-2.6-1.29.19-2.46.71-3.17,1.53l-.54-.21h-.91c0-.96-.64-1.81-1.65-2.4-1.17.4-2.1,1.11-2.47,2.02l-.61-.11-.88.16c-.37-.93-1.33-1.64-2.53-2.04-.97.59-1.59,1.43-1.59,2.37h-.63l-.79.3c-.72-.83-1.92-1.35-3.23-1.53-.71.74-.98,1.66-.62,2.57l-.61.11-.64.43c-1.02-.68-2.38-.98-3.72-.92-.4.83-.3,1.77.41,2.58l-.55.21-.45.53c-1.25-.48-2.68-.53-3.96-.25-.06.87.4,1.76,1.4,2.43l-.45.3-.24.58c-1.25-.22-2.56-.11-3.69.32-.09.03-.15.08-.24.11.15.46.47.9.9,1.28h-1.45c-.18-.22-.34-.45-.46-.68-.27.21-.49.44-.67.68h-1.34c.36-.64.93-1.2,1.69-1.64ZM445.42,18.5c.13,0,.27-.02.4-.02.95,0,1.87.16,2.7.43-.05-.46-.25-.93-.62-1.36-.39-.44-.92-.79-1.52-1.06-.05.7-.36,1.4-.95,2.01ZM441.73,15.35c.64-.14,1.29-.22,1.95-.22.41,0,.81.04,1.21.09-.23-.44-.6-.85-1.13-1.2-.55-.36-1.2-.61-1.89-.76.22.69.2,1.41-.14,2.1ZM436.26,10.89c.48.62.74,1.32.68,2.05.91-.4,1.95-.61,3-.66-.4-.39-.91-.73-1.56-.98-.67-.26-1.39-.38-2.12-.41ZM429.92,9.57c.71.52,1.23,1.15,1.46,1.87.72-.55,1.63-.94,2.63-1.16-.53-.3-1.16-.54-1.88-.67-.75-.13-1.49-.13-2.2-.03ZM423.28,9.39c.89.38,1.63.91,2.13,1.56.48-.66,1.22-1.19,2.1-1.58-.64-.2-1.34-.32-2.09-.32s-1.49.13-2.14.34ZM416.8,10.36c1,.21,1.92.6,2.65,1.14.21-.72.72-1.36,1.42-1.88-.69-.09-1.42-.09-2.15.04-.74.13-1.39.38-1.93.7ZM410.91,12.41c1.05.03,2.09.24,3.01.63-.07-.73.17-1.43.64-2.06-.7.04-1.41.16-2.06.41-.67.26-1.2.61-1.6,1.01ZM406.02,15.39c.42-.06.85-.1,1.28-.1.63,0,1.26.07,1.87.21-.36-.69-.39-1.41-.19-2.1-.67.16-1.29.4-1.83.75-.54.36-.91.79-1.14,1.24ZM402.46,19.12c.86-.29,1.8-.45,2.76-.45l.33.02c-.61-.61-.93-1.3-1-2-.58.26-1.1.61-1.47,1.04-.38.44-.57.92-.62,1.4Z"/>
          <path class="cls-9" d="M404.47,21.3c3.06-5.73,11.27-9.84,20.95-9.84s17.89,4.11,20.95,9.84h-41.89ZM440.95,19.36s.28.31.56.61c.3.3.51.63.51.63l1.23-.41s-.23-.36-.55-.68l-.6-.66-1.15.5ZM438.47,17.35s1.48,1.05,1.45,1.07l1.08-.57s-.08-.08-.22-.19c-.15-.11-.34-.25-.54-.39-.2-.14-.39-.29-.54-.39-.14-.11-.25-.17-.25-.17l-.97.65ZM435.44,15.75s1.76.84,1.76.84l.88-.71s-1.85-.94-1.89-.9l-.75.77ZM431.99,14.6s.13.03.32.08c.19.04.44.11.68.19.49.16.98.31.98.31l.64-.81s-.52-.17-1.05-.34c-.26-.09-.53-.16-.74-.21-.21-.05-.34-.08-.34-.08l-.49.86ZM428.22,13.95s.54.05,1.07.12c.52.09,1.05.18,1.05.18l.36-.88s-.56-.1-1.13-.19c-.57-.08-1.15-.12-1.15-.12l-.21.91ZM424.26,12.91l.08.92s.54-.02,1.08-.04c.54.02,1.08.04,1.08.04l.08-.92s-.58-.02-1.16-.04c-.58.02-1.16.04-1.16.04ZM420.17,13.35l.36.88s.52-.09,1.05-.18c.53-.06,1.07-.11,1.07-.11l-.21-.91s-.58.05-1.15.12l-1.13.19ZM416.26,14.36l.63.81s.49-.16.97-.31c.24-.08.49-.15.69-.19.19-.05.32-.08.32-.08l-.49-.86s-.14.03-.34.08c-.21.05-.48.12-.74.21-.52.17-1.05.34-1.05.34ZM412.78,15.88l.87.71s1.72-.87,1.76-.84l-.74-.77s-1.89.9-1.89.9ZM409.86,17.84l1.08.57s.07-.08.21-.18c.14-.1.32-.23.5-.37.18-.13.36-.27.5-.37.13-.1.24-.16.24-.16l-.97-.65s-.11.06-.25.17c-.15.11-.34.25-.54.39-.2.14-.39.29-.54.39-.15.11-.22.19-.22.19ZM407.6,20.19l1.23.41c-.05-.02,1.07-1.25,1.07-1.25l-1.15-.5s-.3.33-.6.66c-.32.32-.55.68-.55.68Z"/>
        </g>
        <g>
          <path class="cls-9" d="M451.23,19.66c-.1-.79.15-1.61.79-2.35.63-.72,1.55-1.26,2.6-1.6.21-.78.76-1.54,1.68-2.14.89-.59,1.99-.96,3.14-1.11.51-.72,1.34-1.35,2.45-1.77.96-.37,2-.54,3.04-.54.14,0,.28.01.42.02.77-.61,1.82-1.08,3.07-1.3.53-.09,1.05-.14,1.58-.14.68,0,1.35.08,1.98.22.98-.45,2.17-.72,3.46-.72s2.43.26,3.4.69c.65-.15,1.34-.24,2.04-.24.52,0,1.05.04,1.57.14,1.22.22,2.25.67,3.02,1.26.17,0,.33-.02.5-.02,1.03,0,2.08.17,3.03.54,1.09.42,1.91,1.03,2.42,1.73,1.18.14,2.3.51,3.21,1.11.89.59,1.45,1.33,1.67,2.09,1.08.34,2.03.88,2.67,1.62.63.73.88,1.53.79,2.31.84.47,1.49,1.1,1.85,1.84h-1.33c-.21-.33-.48-.64-.82-.9-.15.31-.36.61-.62.9h-1.54c.56-.43.96-.94,1.13-1.49-1.11-.47-2.5-.65-3.86-.41l-.16-.4-.64-.43c1.02-.68,1.47-1.58,1.39-2.47-1.26-.26-2.66-.2-3.89.27l-.31-.36-.79-.3c.72-.83.8-1.78.38-2.63-1.32-.04-2.65.26-3.65.93l-.44-.29-.88-.16c.37-.93.08-1.86-.66-2.6-1.29.19-2.46.71-3.17,1.53l-.54-.21h-.91c0-.96-.64-1.81-1.65-2.4-1.17.4-2.1,1.11-2.47,2.02l-.61-.11-.88.16c-.37-.93-1.33-1.64-2.53-2.04-.97.59-1.59,1.43-1.59,2.37h-.63l-.79.3c-.72-.83-1.92-1.35-3.23-1.53-.71.74-.98,1.66-.62,2.57l-.61.11-.64.43c-1.02-.68-2.38-.98-3.72-.92-.4.83-.3,1.77.41,2.58l-.55.21-.45.53c-1.25-.48-2.68-.53-3.96-.25-.06.87.4,1.76,1.4,2.43l-.45.3-.24.58c-1.25-.22-2.56-.11-3.69.32-.09.03-.15.08-.24.11.15.46.47.9.9,1.28h-1.45c-.18-.22-.34-.45-.46-.68-.27.21-.49.44-.67.68h-1.34c.36-.64.93-1.2,1.69-1.64ZM495.42,18.5c.13,0,.27-.02.4-.02.95,0,1.87.16,2.7.43-.05-.46-.25-.93-.62-1.36-.39-.44-.92-.79-1.52-1.06-.05.7-.36,1.4-.95,2.01ZM491.73,15.35c.64-.14,1.29-.22,1.95-.22.41,0,.81.04,1.21.09-.23-.44-.6-.85-1.13-1.2-.55-.36-1.2-.61-1.89-.76.22.69.2,1.41-.14,2.1ZM486.26,10.89c.48.62.74,1.32.68,2.05.91-.4,1.95-.61,3-.66-.4-.39-.91-.73-1.56-.98-.67-.26-1.39-.38-2.12-.41ZM479.92,9.57c.71.52,1.23,1.15,1.46,1.87.72-.55,1.63-.94,2.63-1.16-.53-.3-1.16-.54-1.88-.67-.75-.13-1.49-.13-2.2-.03ZM473.28,9.39c.89.38,1.63.91,2.13,1.56.48-.66,1.22-1.19,2.1-1.58-.64-.2-1.34-.32-2.09-.32s-1.49.13-2.14.34ZM466.8,10.36c1,.21,1.92.6,2.65,1.14.21-.72.72-1.36,1.42-1.88-.69-.09-1.42-.09-2.15.04-.74.13-1.39.38-1.93.7ZM460.91,12.41c1.05.03,2.09.24,3.01.63-.07-.73.17-1.43.64-2.06-.7.04-1.41.16-2.06.41-.67.26-1.2.61-1.6,1.01ZM456.02,15.39c.42-.06.85-.1,1.28-.1.63,0,1.26.07,1.87.21-.36-.69-.39-1.41-.19-2.1-.67.16-1.29.4-1.83.75-.54.36-.91.79-1.14,1.24ZM452.46,19.12c.86-.29,1.8-.45,2.76-.45l.33.02c-.61-.61-.93-1.3-1-2-.58.26-1.1.61-1.47,1.04-.38.44-.57.92-.62,1.4Z"/>
          <path class="cls-9" d="M454.47,21.3c3.06-5.73,11.27-9.84,20.95-9.84s17.89,4.11,20.95,9.84h-41.89ZM490.95,19.36s.28.31.56.61c.3.3.51.63.51.63l1.23-.41s-.23-.36-.55-.68l-.6-.66-1.15.5ZM488.47,17.35s1.48,1.05,1.45,1.07l1.08-.57s-.08-.08-.22-.19c-.15-.11-.34-.25-.54-.39-.2-.14-.39-.29-.54-.39-.14-.11-.25-.17-.25-.17l-.97.65ZM485.44,15.75s1.76.84,1.76.84l.88-.71s-1.85-.94-1.89-.9l-.75.77ZM481.99,14.6s.13.03.32.08c.19.04.44.11.68.19.49.16.98.31.98.31l.64-.81s-.52-.17-1.05-.34c-.26-.09-.53-.16-.74-.21-.21-.05-.34-.08-.34-.08l-.49.86ZM478.22,13.95s.54.05,1.07.12c.52.09,1.05.18,1.05.18l.36-.88s-.56-.1-1.13-.19c-.57-.08-1.15-.12-1.15-.12l-.21.91ZM474.26,12.91l.08.92s.54-.02,1.08-.04c.54.02,1.08.04,1.08.04l.08-.92s-.58-.02-1.16-.04c-.58.02-1.16.04-1.16.04ZM470.17,13.35l.36.88s.52-.09,1.05-.18c.53-.06,1.07-.11,1.07-.11l-.21-.91s-.58.05-1.15.12l-1.13.19ZM466.26,14.36l.63.81s.49-.16.97-.31c.24-.08.49-.15.69-.19.19-.05.32-.08.32-.08l-.49-.86s-.14.03-.34.08c-.21.05-.48.12-.74.21-.52.17-1.05.34-1.05.34ZM462.78,15.88l.87.71s1.72-.87,1.76-.84l-.74-.77s-1.89.9-1.89.9ZM459.86,17.84l1.08.57s.07-.08.21-.18c.14-.1.32-.23.5-.37.18-.13.36-.27.5-.37.13-.1.24-.16.24-.16l-.97-.65s-.11.06-.25.17c-.15.11-.34.25-.54.39-.2.14-.39.29-.54.39-.15.11-.22.19-.22.19ZM457.6,20.19l1.23.41c-.05-.02,1.07-1.25,1.07-1.25l-1.15-.5s-.3.33-.6.66c-.32.32-.55.68-.55.68Z"/>
        </g>
        <g>
          <path class="cls-9" d="M502.23,19.66c-.1-.79.15-1.61.79-2.35.63-.72,1.55-1.26,2.6-1.6.21-.78.76-1.54,1.68-2.14.89-.59,1.99-.96,3.14-1.11.51-.72,1.34-1.35,2.45-1.77.96-.37,2-.54,3.04-.54.14,0,.28.01.42.02.77-.61,1.82-1.08,3.07-1.3.53-.09,1.05-.14,1.58-.14.68,0,1.35.08,1.98.22.98-.45,2.17-.72,3.46-.72s2.43.26,3.4.69c.65-.15,1.34-.24,2.04-.24.52,0,1.05.04,1.57.14,1.22.22,2.25.67,3.02,1.26.17,0,.33-.02.5-.02,1.03,0,2.08.17,3.03.54,1.09.42,1.91,1.03,2.42,1.73,1.18.14,2.3.51,3.21,1.11.89.59,1.45,1.33,1.67,2.09,1.08.34,2.03.88,2.67,1.62.63.73.88,1.53.79,2.31.84.47,1.49,1.1,1.85,1.84h-1.33c-.21-.33-.48-.64-.82-.9-.15.31-.36.61-.62.9h-1.54c.56-.43.96-.94,1.13-1.49-1.11-.47-2.5-.65-3.86-.41l-.16-.4-.64-.43c1.02-.68,1.47-1.58,1.39-2.47-1.26-.26-2.66-.2-3.89.27l-.31-.36-.79-.3c.72-.83.8-1.78.38-2.63-1.32-.04-2.65.26-3.65.93l-.44-.29-.88-.16c.37-.93.08-1.86-.66-2.6-1.29.19-2.46.71-3.17,1.53l-.54-.21h-.91c0-.96-.64-1.81-1.65-2.4-1.17.4-2.1,1.11-2.47,2.02l-.61-.11-.88.16c-.37-.93-1.33-1.64-2.53-2.04-.97.59-1.59,1.43-1.59,2.37h-.63l-.79.3c-.72-.83-1.92-1.35-3.23-1.53-.71.74-.98,1.66-.62,2.57l-.61.11-.64.43c-1.02-.68-2.38-.98-3.72-.92-.4.83-.3,1.77.41,2.58l-.55.21-.45.53c-1.25-.48-2.68-.53-3.96-.25-.06.87.4,1.76,1.4,2.43l-.45.3-.24.58c-1.25-.22-2.56-.11-3.69.32-.09.03-.15.08-.24.11.15.46.47.9.9,1.28h-1.45c-.18-.22-.34-.45-.46-.68-.27.21-.49.44-.67.68h-1.34c.36-.64.93-1.2,1.69-1.64ZM546.42,18.5c.13,0,.27-.02.4-.02.95,0,1.87.16,2.7.43-.05-.46-.25-.93-.62-1.36-.39-.44-.92-.79-1.52-1.06-.05.7-.36,1.4-.95,2.01ZM542.73,15.35c.64-.14,1.29-.22,1.95-.22.41,0,.81.04,1.21.09-.23-.44-.6-.85-1.13-1.2-.55-.36-1.2-.61-1.89-.76.22.69.2,1.41-.14,2.1ZM537.26,10.89c.48.62.74,1.32.68,2.05.91-.4,1.95-.61,3-.66-.4-.39-.91-.73-1.56-.98-.67-.26-1.39-.38-2.12-.41ZM530.92,9.57c.71.52,1.23,1.15,1.46,1.87.72-.55,1.63-.94,2.63-1.16-.53-.3-1.16-.54-1.88-.67-.75-.13-1.49-.13-2.2-.03ZM524.28,9.39c.89.38,1.63.91,2.13,1.56.48-.66,1.22-1.19,2.1-1.58-.64-.2-1.34-.32-2.09-.32s-1.49.13-2.14.34ZM517.8,10.36c1,.21,1.92.6,2.65,1.14.21-.72.72-1.36,1.42-1.88-.69-.09-1.42-.09-2.15.04-.74.13-1.39.38-1.93.7ZM511.91,12.41c1.05.03,2.09.24,3.01.63-.07-.73.17-1.43.64-2.06-.7.04-1.41.16-2.06.41-.67.26-1.2.61-1.6,1.01ZM507.02,15.39c.42-.06.85-.1,1.28-.1.63,0,1.26.07,1.87.21-.36-.69-.39-1.41-.19-2.1-.67.16-1.29.4-1.83.75-.54.36-.91.79-1.14,1.24ZM503.46,19.12c.86-.29,1.8-.45,2.76-.45l.33.02c-.61-.61-.93-1.3-1-2-.58.26-1.1.61-1.47,1.04-.38.44-.57.92-.62,1.4Z"/>
          <path class="cls-9" d="M505.47,21.3c3.06-5.73,11.27-9.84,20.95-9.84s17.89,4.11,20.95,9.84h-41.89ZM541.95,19.36s.28.31.56.61c.3.3.51.63.51.63l1.23-.41s-.23-.36-.55-.68l-.6-.66-1.15.5ZM539.47,17.35s1.48,1.05,1.45,1.07l1.08-.57s-.08-.08-.22-.19c-.15-.11-.34-.25-.54-.39-.2-.14-.39-.29-.54-.39-.14-.11-.25-.17-.25-.17l-.97.65ZM536.44,15.75s1.76.84,1.76.84l.88-.71s-1.85-.94-1.89-.9l-.75.77ZM532.99,14.6s.13.03.32.08c.19.04.44.11.68.19.49.16.98.31.98.31l.64-.81s-.52-.17-1.05-.34c-.26-.09-.53-.16-.74-.21-.21-.05-.34-.08-.34-.08l-.49.86ZM529.22,13.95s.54.05,1.07.12c.52.09,1.05.18,1.05.18l.36-.88s-.56-.1-1.13-.19c-.57-.08-1.15-.12-1.15-.12l-.21.91ZM525.26,12.91l.08.92s.54-.02,1.08-.04c.54.02,1.08.04,1.08.04l.08-.92s-.58-.02-1.16-.04c-.58.02-1.16.04-1.16.04ZM521.17,13.35l.36.88s.52-.09,1.05-.18c.53-.06,1.07-.11,1.07-.11l-.21-.91s-.58.05-1.15.12l-1.13.19ZM517.26,14.36l.63.81s.49-.16.97-.31c.24-.08.49-.15.69-.19.19-.05.32-.08.32-.08l-.49-.86s-.14.03-.34.08c-.21.05-.48.12-.74.21-.52.17-1.05.34-1.05.34ZM513.78,15.88l.87.71s1.72-.87,1.76-.84l-.74-.77s-1.89.9-1.89.9ZM510.86,17.84l1.08.57s.07-.08.21-.18c.14-.1.32-.23.5-.37.18-.13.36-.27.5-.37.13-.1.24-.16.24-.16l-.97-.65s-.11.06-.25.17c-.15.11-.34.25-.54.39-.2.14-.39.29-.54.39-.15.11-.22.19-.22.19ZM508.6,20.19l1.23.41c-.05-.02,1.07-1.25,1.07-1.25l-1.15-.5s-.3.33-.6.66c-.32.32-.55.68-.55.68Z"/>
        </g>
        <g>
          <path class="cls-9" d="M553.23,19.66c-.1-.79.15-1.61.79-2.35.63-.72,1.55-1.26,2.6-1.6.21-.78.76-1.54,1.68-2.14.89-.59,1.99-.96,3.14-1.11.51-.72,1.34-1.35,2.45-1.77.96-.37,2-.54,3.04-.54.14,0,.28.01.42.02.77-.61,1.82-1.08,3.07-1.3.53-.09,1.05-.14,1.58-.14.68,0,1.35.08,1.98.22.98-.45,2.17-.72,3.46-.72s2.43.26,3.4.69c.65-.15,1.34-.24,2.04-.24.52,0,1.05.04,1.57.14,1.22.22,2.25.67,3.02,1.26.17,0,.33-.02.5-.02,1.03,0,2.08.17,3.03.54,1.09.42,1.91,1.03,2.42,1.73,1.18.14,2.3.51,3.21,1.11.89.59,1.45,1.33,1.67,2.09,1.08.34,2.03.88,2.67,1.62.63.73.88,1.53.79,2.31.84.47,1.49,1.1,1.85,1.84h-1.33c-.21-.33-.48-.64-.82-.9-.15.31-.36.61-.62.9h-1.54c.56-.43.96-.94,1.13-1.49-1.11-.47-2.5-.65-3.86-.41l-.16-.4-.64-.43c1.02-.68,1.47-1.58,1.39-2.47-1.26-.26-2.66-.2-3.89.27l-.31-.36-.79-.3c.72-.83.8-1.78.38-2.63-1.32-.04-2.65.26-3.65.93l-.44-.29-.88-.16c.37-.93.08-1.86-.66-2.6-1.29.19-2.46.71-3.17,1.53l-.54-.21h-.91c0-.96-.64-1.81-1.65-2.4-1.17.4-2.1,1.11-2.47,2.02l-.61-.11-.88.16c-.37-.93-1.33-1.64-2.53-2.04-.97.59-1.59,1.43-1.59,2.37h-.63l-.79.3c-.72-.83-1.92-1.35-3.23-1.53-.71.74-.98,1.66-.62,2.57l-.61.11-.64.43c-1.02-.68-2.38-.98-3.72-.92-.4.83-.3,1.77.41,2.58l-.55.21-.45.53c-1.25-.48-2.68-.53-3.96-.25-.06.87.4,1.76,1.4,2.43l-.45.3-.24.58c-1.25-.22-2.56-.11-3.69.32-.09.03-.15.08-.24.11.15.46.47.9.9,1.28h-1.45c-.18-.22-.34-.45-.46-.68-.27.21-.49.44-.67.68h-1.34c.36-.64.93-1.2,1.69-1.64ZM597.42,18.5c.13,0,.27-.02.4-.02.95,0,1.87.16,2.7.43-.05-.46-.25-.93-.62-1.36-.39-.44-.92-.79-1.52-1.06-.05.7-.36,1.4-.95,2.01ZM593.73,15.35c.64-.14,1.29-.22,1.95-.22.41,0,.81.04,1.21.09-.23-.44-.6-.85-1.13-1.2-.55-.36-1.2-.61-1.89-.76.22.69.2,1.41-.14,2.1ZM588.26,10.89c.48.62.74,1.32.68,2.05.91-.4,1.95-.61,3-.66-.4-.39-.91-.73-1.56-.98-.67-.26-1.39-.38-2.12-.41ZM581.92,9.57c.71.52,1.23,1.15,1.46,1.87.72-.55,1.63-.94,2.63-1.16-.53-.3-1.16-.54-1.88-.67-.75-.13-1.49-.13-2.2-.03ZM575.28,9.39c.89.38,1.63.91,2.13,1.56.48-.66,1.22-1.19,2.1-1.58-.64-.2-1.34-.32-2.09-.32s-1.49.13-2.14.34ZM568.8,10.36c1,.21,1.92.6,2.65,1.14.21-.72.72-1.36,1.42-1.88-.69-.09-1.42-.09-2.15.04-.74.13-1.39.38-1.93.7ZM562.91,12.41c1.05.03,2.09.24,3.01.63-.07-.73.17-1.43.64-2.06-.7.04-1.41.16-2.06.41-.67.26-1.2.61-1.6,1.01ZM558.02,15.39c.42-.06.85-.1,1.28-.1.63,0,1.26.07,1.87.21-.36-.69-.39-1.41-.19-2.1-.67.16-1.29.4-1.83.75-.54.36-.91.79-1.14,1.24ZM554.46,19.12c.86-.29,1.8-.45,2.76-.45l.33.02c-.61-.61-.93-1.3-1-2-.58.26-1.1.61-1.47,1.04-.38.44-.57.92-.62,1.4Z"/>
          <path class="cls-9" d="M556.47,21.3c3.06-5.73,11.27-9.84,20.95-9.84s17.89,4.11,20.95,9.84h-41.89ZM592.95,19.36s.28.31.56.61c.3.3.51.63.51.63l1.23-.41s-.23-.36-.55-.68l-.6-.66-1.15.5ZM590.47,17.35s1.48,1.05,1.45,1.07l1.08-.57s-.08-.08-.22-.19c-.15-.11-.34-.25-.54-.39-.2-.14-.39-.29-.54-.39-.14-.11-.25-.17-.25-.17l-.97.65ZM587.44,15.75s1.76.84,1.76.84l.88-.71s-1.85-.94-1.89-.9l-.75.77ZM583.99,14.6s.13.03.32.08c.19.04.44.11.68.19.49.16.98.31.98.31l.64-.81s-.52-.17-1.05-.34c-.26-.09-.53-.16-.74-.21-.21-.05-.34-.08-.34-.08l-.49.86ZM580.22,13.95s.54.05,1.07.12c.52.09,1.05.18,1.05.18l.36-.88s-.56-.1-1.13-.19c-.57-.08-1.15-.12-1.15-.12l-.21.91ZM576.26,12.91l.08.92s.54-.02,1.08-.04c.54.02,1.08.04,1.08.04l.08-.92s-.58-.02-1.16-.04c-.58.02-1.16.04-1.16.04ZM572.17,13.35l.36.88s.52-.09,1.05-.18c.53-.06,1.07-.11,1.07-.11l-.21-.91s-.58.05-1.15.12l-1.13.19ZM568.26,14.36l.63.81s.49-.16.97-.31c.24-.08.49-.15.69-.19.19-.05.32-.08.32-.08l-.49-.86s-.14.03-.34.08c-.21.05-.48.12-.74.21-.52.17-1.05.34-1.05.34ZM564.78,15.88l.87.71s1.72-.87,1.76-.84l-.74-.77s-1.89.9-1.89.9ZM561.86,17.84l1.08.57s.07-.08.21-.18c.14-.1.32-.23.5-.37.18-.13.36-.27.5-.37.13-.1.24-.16.24-.16l-.97-.65s-.11.06-.25.17c-.15.11-.34.25-.54.39-.2.14-.39.29-.54.39-.15.11-.22.19-.22.19ZM559.6,20.19l1.23.41c-.05-.02,1.07-1.25,1.07-1.25l-1.15-.5s-.3.33-.6.66c-.32.32-.55.68-.55.68Z"/>
        </g>
        <g>
          <path class="cls-9" d="M603.23,19.66c-.1-.79.15-1.61.79-2.35.63-.72,1.55-1.26,2.6-1.6.21-.78.76-1.54,1.68-2.14.89-.59,1.99-.96,3.14-1.11.51-.72,1.34-1.35,2.45-1.77.96-.37,2-.54,3.04-.54.14,0,.28.01.42.02.77-.61,1.82-1.08,3.07-1.3.53-.09,1.05-.14,1.58-.14.68,0,1.35.08,1.98.22.98-.45,2.17-.72,3.46-.72s2.43.26,3.4.69c.65-.15,1.34-.24,2.04-.24.52,0,1.05.04,1.57.14,1.22.22,2.25.67,3.02,1.26.17,0,.33-.02.5-.02,1.03,0,2.08.17,3.03.54,1.09.42,1.91,1.03,2.42,1.73,1.18.14,2.3.51,3.21,1.11.89.59,1.45,1.33,1.67,2.09,1.08.34,2.03.88,2.67,1.62.63.73.88,1.53.79,2.31.84.47,1.49,1.1,1.85,1.84h-1.33c-.21-.33-.48-.64-.82-.9-.15.31-.36.61-.62.9h-1.54c.56-.43.96-.94,1.13-1.49-1.11-.47-2.5-.65-3.86-.41l-.16-.4-.64-.43c1.02-.68,1.47-1.58,1.39-2.47-1.26-.26-2.66-.2-3.89.27l-.31-.36-.79-.3c.72-.83.8-1.78.38-2.63-1.32-.04-2.65.26-3.65.93l-.44-.29-.88-.16c.37-.93.08-1.86-.66-2.6-1.29.19-2.46.71-3.17,1.53l-.54-.21h-.91c0-.96-.64-1.81-1.65-2.4-1.17.4-2.1,1.11-2.47,2.02l-.61-.11-.88.16c-.37-.93-1.33-1.64-2.53-2.04-.97.59-1.59,1.43-1.59,2.37h-.63l-.79.3c-.72-.83-1.92-1.35-3.23-1.53-.71.74-.98,1.66-.62,2.57l-.61.11-.64.43c-1.02-.68-2.38-.98-3.72-.92-.4.83-.3,1.77.41,2.58l-.55.21-.45.53c-1.25-.48-2.68-.53-3.96-.25-.06.87.4,1.76,1.4,2.43l-.45.3-.24.58c-1.25-.22-2.56-.11-3.69.32-.09.03-.15.08-.24.11.15.46.47.9.9,1.28h-1.45c-.18-.22-.34-.45-.46-.68-.27.21-.49.44-.67.68h-1.34c.36-.64.93-1.2,1.69-1.64ZM647.42,18.5c.13,0,.27-.02.4-.02.95,0,1.87.16,2.7.43-.05-.46-.25-.93-.62-1.36-.39-.44-.92-.79-1.52-1.06-.05.7-.36,1.4-.95,2.01ZM643.73,15.35c.64-.14,1.29-.22,1.95-.22.41,0,.81.04,1.21.09-.23-.44-.6-.85-1.13-1.2-.55-.36-1.2-.61-1.89-.76.22.69.2,1.41-.14,2.1ZM638.26,10.89c.48.62.74,1.32.68,2.05.91-.4,1.95-.61,3-.66-.4-.39-.91-.73-1.56-.98-.67-.26-1.39-.38-2.12-.41ZM631.92,9.57c.71.52,1.23,1.15,1.46,1.87.72-.55,1.63-.94,2.63-1.16-.53-.3-1.16-.54-1.88-.67-.75-.13-1.49-.13-2.2-.03ZM625.28,9.39c.89.38,1.63.91,2.13,1.56.48-.66,1.22-1.19,2.1-1.58-.64-.2-1.34-.32-2.09-.32s-1.49.13-2.14.34ZM618.8,10.36c1,.21,1.92.6,2.65,1.14.21-.72.72-1.36,1.42-1.88-.69-.09-1.42-.09-2.15.04-.74.13-1.39.38-1.93.7ZM612.91,12.41c1.05.03,2.09.24,3.01.63-.07-.73.17-1.43.64-2.06-.7.04-1.41.16-2.06.41-.67.26-1.2.61-1.6,1.01ZM608.02,15.39c.42-.06.85-.1,1.28-.1.63,0,1.26.07,1.87.21-.36-.69-.39-1.41-.19-2.1-.67.16-1.29.4-1.83.75-.54.36-.91.79-1.14,1.24ZM604.46,19.12c.86-.29,1.8-.45,2.76-.45l.33.02c-.61-.61-.93-1.3-1-2-.58.26-1.1.61-1.47,1.04-.38.44-.57.92-.62,1.4Z"/>
          <path class="cls-9" d="M606.47,21.3c3.06-5.73,11.27-9.84,20.95-9.84s17.89,4.11,20.95,9.84h-41.89ZM642.95,19.36s.28.31.56.61c.3.3.51.63.51.63l1.23-.41s-.23-.36-.55-.68l-.6-.66-1.15.5ZM640.47,17.35s1.48,1.05,1.45,1.07l1.08-.57s-.08-.08-.22-.19c-.15-.11-.34-.25-.54-.39-.2-.14-.39-.29-.54-.39-.14-.11-.25-.17-.25-.17l-.97.65ZM637.44,15.75s1.76.84,1.76.84l.88-.71s-1.85-.94-1.89-.9l-.75.77ZM633.99,14.6s.13.03.32.08c.19.04.44.11.68.19.49.16.98.31.98.31l.64-.81s-.52-.17-1.05-.34c-.26-.09-.53-.16-.74-.21-.21-.05-.34-.08-.34-.08l-.49.86ZM630.22,13.95s.54.05,1.07.12c.52.09,1.05.18,1.05.18l.36-.88s-.56-.1-1.13-.19c-.57-.08-1.15-.12-1.15-.12l-.21.91ZM626.26,12.91l.08.92s.54-.02,1.08-.04c.54.02,1.08.04,1.08.04l.08-.92s-.58-.02-1.16-.04c-.58.02-1.16.04-1.16.04ZM622.17,13.35l.36.88s.52-.09,1.05-.18c.53-.06,1.07-.11,1.07-.11l-.21-.91s-.58.05-1.15.12l-1.13.19ZM618.26,14.36l.63.81s.49-.16.97-.31c.24-.08.49-.15.69-.19.19-.05.32-.08.32-.08l-.49-.86s-.14.03-.34.08c-.21.05-.48.12-.74.21-.52.17-1.05.34-1.05.34ZM614.78,15.88l.87.71s1.72-.87,1.76-.84l-.74-.77s-1.89.9-1.89.9ZM611.86,17.84l1.08.57s.07-.08.21-.18c.14-.1.32-.23.5-.37.18-.13.36-.27.5-.37.13-.1.24-.16.24-.16l-.97-.65s-.11.06-.25.17c-.15.11-.34.25-.54.39-.2.14-.39.29-.54.39-.15.11-.22.19-.22.19ZM609.6,20.19l1.23.41c-.05-.02,1.07-1.25,1.07-1.25l-1.15-.5s-.3.33-.6.66c-.32.32-.55.68-.55.68Z"/>
        </g>
        <g>
          <path class="cls-9" d="M654.23,19.66c-.1-.79.15-1.61.79-2.35.63-.72,1.55-1.26,2.6-1.6.21-.78.76-1.54,1.68-2.14.89-.59,1.99-.96,3.14-1.11.51-.72,1.34-1.35,2.45-1.77.96-.37,2-.54,3.04-.54.14,0,.28.01.42.02.77-.61,1.82-1.08,3.07-1.3.53-.09,1.05-.14,1.58-.14.68,0,1.35.08,1.98.22.98-.45,2.17-.72,3.46-.72s2.43.26,3.4.69c.65-.15,1.34-.24,2.04-.24.52,0,1.05.04,1.57.14,1.22.22,2.25.67,3.02,1.26.17,0,.33-.02.5-.02,1.03,0,2.08.17,3.03.54,1.09.42,1.91,1.03,2.42,1.73,1.18.14,2.3.51,3.21,1.11.89.59,1.45,1.33,1.67,2.09,1.08.34,2.03.88,2.67,1.62.63.73.88,1.53.79,2.31.84.47,1.49,1.1,1.85,1.84h-1.33c-.21-.33-.48-.64-.82-.9-.15.31-.36.61-.62.9h-1.54c.56-.43.96-.94,1.13-1.49-1.11-.47-2.5-.65-3.86-.41l-.16-.4-.64-.43c1.02-.68,1.47-1.58,1.39-2.47-1.26-.26-2.66-.2-3.89.27l-.31-.36-.79-.3c.72-.83.8-1.78.38-2.63-1.32-.04-2.65.26-3.65.93l-.44-.29-.88-.16c.37-.93.08-1.86-.66-2.6-1.29.19-2.46.71-3.17,1.53l-.54-.21h-.91c0-.96-.64-1.81-1.65-2.4-1.17.4-2.1,1.11-2.47,2.02l-.61-.11-.88.16c-.37-.93-1.33-1.64-2.53-2.04-.97.59-1.59,1.43-1.59,2.37h-.63l-.79.3c-.72-.83-1.92-1.35-3.23-1.53-.71.74-.98,1.66-.62,2.57l-.61.11-.64.43c-1.02-.68-2.38-.98-3.72-.92-.4.83-.3,1.77.41,2.58l-.55.21-.45.53c-1.25-.48-2.68-.53-3.96-.25-.06.87.4,1.76,1.4,2.43l-.45.3-.24.58c-1.25-.22-2.56-.11-3.69.32-.09.03-.15.08-.24.11.15.46.47.9.9,1.28h-1.45c-.18-.22-.34-.45-.46-.68-.27.21-.49.44-.67.68h-1.34c.36-.64.93-1.2,1.69-1.64ZM698.42,18.5c.13,0,.27-.02.4-.02.95,0,1.87.16,2.7.43-.05-.46-.25-.93-.62-1.36-.39-.44-.92-.79-1.52-1.06-.05.7-.36,1.4-.95,2.01ZM694.73,15.35c.64-.14,1.29-.22,1.95-.22.41,0,.81.04,1.21.09-.23-.44-.6-.85-1.13-1.2-.55-.36-1.2-.61-1.89-.76.22.69.2,1.41-.14,2.1ZM689.26,10.89c.48.62.74,1.32.68,2.05.91-.4,1.95-.61,3-.66-.4-.39-.91-.73-1.56-.98-.67-.26-1.39-.38-2.12-.41ZM682.92,9.57c.71.52,1.23,1.15,1.46,1.87.72-.55,1.63-.94,2.63-1.16-.53-.3-1.16-.54-1.88-.67-.75-.13-1.49-.13-2.2-.03ZM676.28,9.39c.89.38,1.63.91,2.13,1.56.48-.66,1.22-1.19,2.1-1.58-.64-.2-1.34-.32-2.09-.32s-1.49.13-2.14.34ZM669.8,10.36c1,.21,1.92.6,2.65,1.14.21-.72.72-1.36,1.42-1.88-.69-.09-1.42-.09-2.15.04-.74.13-1.39.38-1.93.7ZM663.91,12.41c1.05.03,2.09.24,3.01.63-.07-.73.17-1.43.64-2.06-.7.04-1.41.16-2.06.41-.67.26-1.2.61-1.6,1.01ZM659.02,15.39c.42-.06.85-.1,1.28-.1.63,0,1.26.07,1.87.21-.36-.69-.39-1.41-.19-2.1-.67.16-1.29.4-1.83.75-.54.36-.91.79-1.14,1.24ZM655.46,19.12c.86-.29,1.8-.45,2.76-.45l.33.02c-.61-.61-.93-1.3-1-2-.58.26-1.1.61-1.47,1.04-.38.44-.57.92-.62,1.4Z"/>
          <path class="cls-9" d="M657.47,21.3c3.06-5.73,11.27-9.84,20.95-9.84s17.89,4.11,20.95,9.84h-41.89ZM693.95,19.36s.28.31.56.61c.3.3.51.63.51.63l1.23-.41s-.23-.36-.55-.68l-.6-.66-1.15.5ZM691.47,17.35s1.48,1.05,1.45,1.07l1.08-.57s-.08-.08-.22-.19c-.15-.11-.34-.25-.54-.39-.2-.14-.39-.29-.54-.39-.14-.11-.25-.17-.25-.17l-.97.65ZM688.44,15.75s1.76.84,1.76.84l.88-.71s-1.85-.94-1.89-.9l-.75.77ZM684.99,14.6s.13.03.32.08c.19.04.44.11.68.19.49.16.98.31.98.31l.64-.81s-.52-.17-1.05-.34c-.26-.09-.53-.16-.74-.21-.21-.05-.34-.08-.34-.08l-.49.86ZM681.22,13.95s.54.05,1.07.12c.52.09,1.05.18,1.05.18l.36-.88s-.56-.1-1.13-.19c-.57-.08-1.15-.12-1.15-.12l-.21.91ZM677.26,12.91l.08.92s.54-.02,1.08-.04c.54.02,1.08.04,1.08.04l.08-.92s-.58-.02-1.16-.04c-.58.02-1.16.04-1.16.04ZM673.17,13.35l.36.88s.52-.09,1.05-.18c.53-.06,1.07-.11,1.07-.11l-.21-.91s-.58.05-1.15.12l-1.13.19ZM669.26,14.36l.63.81s.49-.16.97-.31c.24-.08.49-.15.69-.19.19-.05.32-.08.32-.08l-.49-.86s-.14.03-.34.08c-.21.05-.48.12-.74.21-.52.17-1.05.34-1.05.34ZM665.78,15.88l.87.71s1.72-.87,1.76-.84l-.74-.77s-1.89.9-1.89.9ZM662.86,17.84l1.08.57s.07-.08.21-.18c.14-.1.32-.23.5-.37.18-.13.36-.27.5-.37.13-.1.24-.16.24-.16l-.97-.65s-.11.06-.25.17c-.15.11-.34.25-.54.39-.2.14-.39.29-.54.39-.15.11-.22.19-.22.19ZM660.6,20.19l1.23.41c-.05-.02,1.07-1.25,1.07-1.25l-1.15-.5s-.3.33-.6.66c-.32.32-.55.68-.55.68Z"/>
        </g>
        <g>
          <path class="cls-9" d="M705.23,19.66c-.1-.79.15-1.61.79-2.35.63-.72,1.55-1.26,2.6-1.6.21-.78.76-1.54,1.68-2.14.89-.59,1.99-.96,3.14-1.11.51-.72,1.34-1.35,2.45-1.77.96-.37,2-.54,3.04-.54.14,0,.28.01.42.02.77-.61,1.82-1.08,3.07-1.3.53-.09,1.05-.14,1.58-.14.68,0,1.35.08,1.98.22.98-.45,2.17-.72,3.46-.72s2.43.26,3.4.69c.65-.15,1.34-.24,2.04-.24.52,0,1.05.04,1.57.14,1.22.22,2.25.67,3.02,1.26.17,0,.33-.02.5-.02,1.03,0,2.08.17,3.03.54,1.09.42,1.91,1.03,2.42,1.73,1.18.14,2.3.51,3.21,1.11.89.59,1.45,1.33,1.67,2.09,1.08.34,2.03.88,2.67,1.62.63.73.88,1.53.79,2.31.84.47,1.49,1.1,1.85,1.84h-1.33c-.21-.33-.48-.64-.82-.9-.15.31-.36.61-.62.9h-1.54c.56-.43.96-.94,1.13-1.49-1.11-.47-2.5-.65-3.86-.41l-.16-.4-.64-.43c1.02-.68,1.47-1.58,1.39-2.47-1.26-.26-2.66-.2-3.89.27l-.31-.36-.79-.3c.72-.83.8-1.78.38-2.63-1.32-.04-2.65.26-3.65.93l-.44-.29-.88-.16c.37-.93.08-1.86-.66-2.6-1.29.19-2.46.71-3.17,1.53l-.54-.21h-.91c0-.96-.64-1.81-1.65-2.4-1.17.4-2.1,1.11-2.47,2.02l-.61-.11-.88.16c-.37-.93-1.33-1.64-2.53-2.04-.97.59-1.59,1.43-1.59,2.37h-.63l-.79.3c-.72-.83-1.92-1.35-3.23-1.53-.71.74-.98,1.66-.62,2.57l-.61.11-.64.43c-1.02-.68-2.38-.98-3.72-.92-.4.83-.3,1.77.41,2.58l-.55.21-.45.53c-1.25-.48-2.68-.53-3.96-.25-.06.87.4,1.76,1.4,2.43l-.45.3-.24.58c-1.25-.22-2.56-.11-3.69.32-.09.03-.15.08-.24.11.15.46.47.9.9,1.28h-1.45c-.18-.22-.34-.45-.46-.68-.27.21-.49.44-.67.68h-1.34c.36-.64.93-1.2,1.69-1.64ZM749.42,18.5c.13,0,.27-.02.4-.02.95,0,1.87.16,2.7.43-.05-.46-.25-.93-.62-1.36-.39-.44-.92-.79-1.52-1.06-.05.7-.36,1.4-.95,2.01ZM745.73,15.35c.64-.14,1.29-.22,1.95-.22.41,0,.81.04,1.21.09-.23-.44-.6-.85-1.13-1.2-.55-.36-1.2-.61-1.89-.76.22.69.2,1.41-.14,2.1ZM740.26,10.89c.48.62.74,1.32.68,2.05.91-.4,1.95-.61,3-.66-.4-.39-.91-.73-1.56-.98-.67-.26-1.39-.38-2.12-.41ZM733.92,9.57c.71.52,1.23,1.15,1.46,1.87.72-.55,1.63-.94,2.63-1.16-.53-.3-1.16-.54-1.88-.67-.75-.13-1.49-.13-2.2-.03ZM727.28,9.39c.89.38,1.63.91,2.13,1.56.48-.66,1.22-1.19,2.1-1.58-.64-.2-1.34-.32-2.09-.32s-1.49.13-2.14.34ZM720.8,10.36c1,.21,1.92.6,2.65,1.14.21-.72.72-1.36,1.42-1.88-.69-.09-1.42-.09-2.15.04-.74.13-1.39.38-1.93.7ZM714.91,12.41c1.05.03,2.09.24,3.01.63-.07-.73.17-1.43.64-2.06-.7.04-1.41.16-2.06.41-.67.26-1.2.61-1.6,1.01ZM710.02,15.39c.42-.06.85-.1,1.28-.1.63,0,1.26.07,1.87.21-.36-.69-.39-1.41-.19-2.1-.67.16-1.29.4-1.83.75-.54.36-.91.79-1.14,1.24ZM706.46,19.12c.86-.29,1.8-.45,2.76-.45l.33.02c-.61-.61-.93-1.3-1-2-.58.26-1.1.61-1.47,1.04-.38.44-.57.92-.62,1.4Z"/>
          <path class="cls-9" d="M708.47,21.3c3.06-5.73,11.27-9.84,20.95-9.84s17.89,4.11,20.95,9.84h-41.89ZM744.95,19.36s.28.31.56.61c.3.3.51.63.51.63l1.23-.41s-.23-.36-.55-.68l-.6-.66-1.15.5ZM742.47,17.35s1.48,1.05,1.45,1.07l1.08-.57s-.08-.08-.22-.19c-.15-.11-.34-.25-.54-.39-.2-.14-.39-.29-.54-.39-.14-.11-.25-.17-.25-.17l-.97.65ZM739.44,15.75s1.76.84,1.76.84l.88-.71s-1.85-.94-1.89-.9l-.75.77ZM735.99,14.6s.13.03.32.08c.19.04.44.11.68.19.49.16.98.31.98.31l.64-.81s-.52-.17-1.05-.34c-.26-.09-.53-.16-.74-.21-.21-.05-.34-.08-.34-.08l-.49.86ZM732.22,13.95s.54.05,1.07.12c.52.09,1.05.18,1.05.18l.36-.88s-.56-.1-1.13-.19c-.57-.08-1.15-.12-1.15-.12l-.21.91ZM728.26,12.91l.08.92s.54-.02,1.08-.04c.54.02,1.08.04,1.08.04l.08-.92s-.58-.02-1.16-.04c-.58.02-1.16.04-1.16.04ZM724.17,13.35l.36.88s.52-.09,1.05-.18c.53-.06,1.07-.11,1.07-.11l-.21-.91s-.58.05-1.15.12l-1.13.19ZM720.26,14.36l.63.81s.49-.16.97-.31c.24-.08.49-.15.69-.19.19-.05.32-.08.32-.08l-.49-.86s-.14.03-.34.08c-.21.05-.48.12-.74.21-.52.17-1.05.34-1.05.34ZM716.78,15.88l.87.71s1.72-.87,1.76-.84l-.74-.77s-1.89.9-1.89.9ZM713.86,17.84l1.08.57s.07-.08.21-.18c.14-.1.32-.23.5-.37.18-.13.36-.27.5-.37.13-.1.24-.16.24-.16l-.97-.65s-.11.06-.25.17c-.15.11-.34.25-.54.39-.2.14-.39.29-.54.39-.15.11-.22.19-.22.19ZM711.6,20.19l1.23.41c-.05-.02,1.07-1.25,1.07-1.25l-1.15-.5s-.3.33-.6.66c-.32.32-.55.68-.55.68Z"/>
        </g>
        <g>
          <path class="cls-9" d="M755.1,19.27c-.09-.73.13-1.48.72-2.16.58-.66,1.43-1.16,2.39-1.47.19-.72.7-1.41,1.54-1.97.82-.54,1.83-.88,2.89-1.02.47-.66,1.23-1.24,2.25-1.63.88-.34,1.84-.5,2.79-.5.13,0,.26.01.39.02.71-.56,1.67-.99,2.82-1.19.48-.09.97-.13,1.45-.13.63,0,1.24.07,1.82.2.9-.42,2-.66,3.18-.66s2.24.24,3.13.64c.6-.14,1.23-.22,1.88-.22.48,0,.96.04,1.45.13,1.12.2,2.07.61,2.78,1.16.15,0,.31-.02.46-.02.95,0,1.91.16,2.79.5,1,.39,1.76.95,2.23,1.59,1.08.13,2.12.47,2.96,1.02.82.55,1.33,1.22,1.53,1.92,1,.31,1.86.81,2.46,1.49.58.67.81,1.41.73,2.13.77.44,1.37,1.01,1.7,1.69h-1.22c-.2-.3-.44-.59-.76-.82-.14.29-.33.56-.57.82h-1.42c.52-.39.88-.86,1.04-1.37-1.02-.43-2.3-.6-3.55-.38l-.15-.37-.59-.39c.94-.62,1.35-1.46,1.28-2.28-1.16-.24-2.45-.18-3.58.25l-.29-.33-.73-.28c.66-.76.74-1.64.35-2.42-1.21-.04-2.44.24-3.36.86l-.41-.27-.81-.14c.34-.85.07-1.71-.6-2.4-1.18.17-2.26.65-2.91,1.4l-.5-.19h-.84c0-.88-.59-1.67-1.51-2.21-1.08.37-1.93,1.02-2.27,1.86l-.56-.1-.81.14c-.34-.85-1.22-1.51-2.33-1.88-.89.54-1.47,1.32-1.47,2.18h-.58l-.73.28c-.66-.76-1.77-1.25-2.98-1.41-.65.68-.9,1.52-.57,2.36l-.56.1-.59.39c-.94-.62-2.19-.9-3.43-.85-.37.77-.28,1.63.37,2.38l-.5.19-.42.48c-1.15-.44-2.47-.49-3.64-.23-.05.8.37,1.62,1.29,2.23l-.41.27-.22.54c-1.15-.21-2.36-.1-3.39.3-.08.03-.14.07-.22.1.14.42.43.82.83,1.17h-1.34c-.17-.2-.31-.41-.42-.63-.25.19-.45.4-.62.63h-1.23c.33-.59.86-1.1,1.56-1.51ZM795.75,18.2c.12,0,.24-.02.36-.02.88,0,1.72.14,2.48.39-.05-.43-.23-.85-.57-1.25-.36-.41-.85-.73-1.4-.98-.05.65-.33,1.28-.88,1.84ZM792.35,15.31c.59-.13,1.19-.21,1.79-.21.37,0,.74.03,1.11.08-.22-.4-.55-.79-1.04-1.11-.5-.33-1.1-.56-1.73-.7.21.63.18,1.3-.13,1.93ZM787.32,11.2c.44.57.68,1.22.63,1.88.84-.37,1.79-.56,2.76-.6-.36-.36-.84-.67-1.44-.9-.62-.24-1.28-.35-1.95-.38ZM781.49,9.99c.65.48,1.13,1.06,1.34,1.72.66-.5,1.5-.86,2.42-1.07-.49-.28-1.07-.5-1.73-.62-.69-.12-1.37-.12-2.03-.03ZM775.38,9.82c.82.35,1.5.84,1.96,1.44.45-.6,1.12-1.1,1.93-1.45-.58-.19-1.23-.3-1.92-.3s-1.37.12-1.97.32ZM769.42,10.71c.92.2,1.77.55,2.44,1.05.2-.66.67-1.25,1.31-1.73-.64-.08-1.31-.08-1.97.04-.68.12-1.28.35-1.78.64ZM763.99,12.6c.97.03,1.93.22,2.77.58-.07-.67.16-1.31.59-1.89-.65.03-1.29.15-1.89.38-.62.24-1.1.56-1.47.93ZM759.5,15.34c.39-.06.78-.09,1.18-.09.58,0,1.16.07,1.72.19-.33-.63-.36-1.3-.17-1.93-.61.14-1.19.37-1.68.69-.5.33-.84.73-1.05,1.14ZM756.23,18.77c.8-.27,1.66-.42,2.53-.42h.31c-.56-.54-.86-1.18-.92-1.82-.54.24-1.01.56-1.35.96-.35.41-.53.85-.57,1.29Z"/>
          <path class="cls-9" d="M758.08,20.78c2.81-5.27,10.37-9.05,19.27-9.05s16.45,3.78,19.27,9.05h-38.54ZM791.63,19s.26.28.52.57c.28.28.47.58.47.58l1.13-.38s-.21-.33-.5-.63l-.56-.61-1.06.46ZM789.35,17.15s1.36.97,1.33.99l.99-.53s-.07-.07-.21-.17c-.13-.1-.31-.23-.49-.36-.18-.13-.36-.26-.49-.36-.13-.1-.23-.16-.23-.16l-.89.6ZM786.56,15.67s1.62.77,1.62.77l.81-.65s-1.7-.86-1.74-.83l-.69.71ZM783.39,14.61s.12.03.29.07c.18.04.41.1.63.18.45.14.9.29.9.29l.59-.75s-.48-.15-.96-.31c-.24-.08-.49-.15-.68-.19-.19-.05-.31-.08-.31-.08l-.45.79ZM779.92,14.01s.49.04.98.11c.48.08.96.17.96.17l.34-.81s-.52-.09-1.04-.18c-.52-.07-1.06-.11-1.06-.11l-.19.83ZM776.28,13.06l.07.84s.5-.02,1-.03c.5.02,1,.03,1,.03l.07-.84s-.53-.02-1.07-.04c-.53.02-1.07.04-1.07.04ZM772.52,13.47l.33.81s.48-.08.96-.16c.49-.05.98-.11.98-.11l-.19-.83s-.53.05-1.06.11l-1.04.18ZM768.92,14.39l.58.75s.45-.14.9-.29c.22-.08.45-.14.63-.18.18-.04.29-.07.29-.07l-.45-.79s-.13.03-.31.08c-.19.04-.44.11-.68.19-.48.15-.96.31-.96.31ZM765.72,15.79l.8.65s1.58-.8,1.62-.77l-.68-.71s-1.74.83-1.74.83ZM763.03,17.59l.99.53s.07-.07.19-.16c.13-.09.29-.21.46-.34.17-.12.34-.24.46-.34.12-.1.22-.15.22-.15l-.89-.6s-.1.06-.23.16c-.14.1-.32.23-.5.36-.18.13-.36.26-.49.36-.13.1-.21.17-.21.17ZM760.96,19.75l1.13.38s.99-1.15.99-1.15l-1.06-.46s-.28.3-.56.61c-.3.3-.51.63-.51.63Z"/>
        </g>
      </g>
      <path class="cls-10" d="M806.99,136.7H38.99V21.7h768v115Z"/>
      <text class="cls-2" transform="translate(405.69 30.38)"><tspan class="cls-12" x="0" y="0">T</tspan><tspan x="3.03" y="0">O</tspan><tspan class="cls-12" x="7.23" y="0">D</tspan><tspan class="cls-11" x="11.29" y="0">A</tspan><tspan class="cls-13" x="14.88" y="0">Y</tspan><tspan class="cls-15" x="18.37" y="0"></tspan><tspan class="cls-8" x="19.72" y="0">S MENU</tspan></text>
      <g>
        <g>
          <path class="cls-9" d="M402.09,26.56c-1.02,0-1.24.98-1.24.98,0,0-.22-.98-1.24-.98s-1.35,1.02-1.06,1.79c.29.77,1.82,1.93,2.3,2.19.47-.26,2.01-1.42,2.3-2.19.29-.77-.04-1.79-1.06-1.79Z"/>
          <path class="cls-9" d="M391.81,27.64c-.46,0-.56.45-.56.45,0,0-.1-.45-.56-.45s-.61.46-.48.81c.13.35.83.88,1.05,1,.22-.12.91-.65,1.05-1,.13-.35-.02-.81-.48-.81Z"/>
        </g>
        <g>
          <path class="cls-9" d="M449.62,26.56c1.02,0,1.24.98,1.24.98,0,0,.22-.98,1.24-.98s1.35,1.02,1.06,1.79c-.29.77-1.82,1.93-2.3,2.19-.47-.26-2.01-1.42-2.3-2.19-.29-.77.04-1.79,1.06-1.79Z"/>
          <path class="cls-9" d="M459.9,27.64c.46,0,.56.45.56.45,0,0,.1-.45.56-.45s.61.46.48.81c-.13.35-.83.88-1.05,1-.22-.12-.91-.65-1.05-1-.13-.35.02-.81.48-.81Z"/>
        </g>
      </g>
      <g>
        <g>
          <g>
            <rect class="cls-4" x="348.55" y="80.79" width="1.32" height=".85"/>
            <rect class="cls-4" x="346.18" y="80.79" width="1.32" height=".85"/>
            <rect class="cls-4" x="343.82" y="80.79" width="1.32" height=".85"/>
          </g>
          <g>
            <rect class="cls-4" x="355.66" y="80.79" width="1.32" height=".85"/>
            <rect class="cls-4" x="353.3" y="80.79" width="1.32" height=".85"/>
            <rect class="cls-4" x="350.93" y="80.79" width="1.32" height=".85"/>
          </g>
          <g>
            <rect class="cls-4" x="362.78" y="80.79" width="1.32" height=".85"/>
            <rect class="cls-4" x="360.41" y="80.79" width="1.32" height=".85"/>
            <rect class="cls-4" x="358.05" y="80.79" width="1.32" height=".85"/>
          </g>
          <g>
            <rect class="cls-4" x="369.9" y="80.79" width="1.32" height=".85"/>
            <rect class="cls-4" x="367.53" y="80.79" width="1.32" height=".85"/>
            <rect class="cls-4" x="365.17" y="80.79" width="1.32" height=".85"/>
          </g>
          <g>
            <rect class="cls-4" x="377.02" y="80.79" width="1.32" height=".85"/>
            <rect class="cls-4" x="374.65" y="80.79" width="1.32" height=".85"/>
            <rect class="cls-4" x="372.29" y="80.79" width="1.32" height=".85"/>
          </g>
          <g>
            <rect class="cls-4" x="384.13" y="80.79" width="1.32" height=".85"/>
            <rect class="cls-4" x="381.77" y="80.79" width="1.32" height=".85"/>
            <rect class="cls-4" x="379.4" y="80.79" width="1.32" height=".85"/>
          </g>
          <g>
            <rect class="cls-4" x="391.25" y="80.79" width="1.32" height=".85"/>
            <rect class="cls-4" x="388.88" y="80.79" width="1.32" height=".85"/>
            <rect class="cls-4" x="386.52" y="80.79" width="1.32" height=".85"/>
          </g>
        </g>
        <text class="cls-3" transform="translate(397.5 81.99)"><tspan x="0" y="0">$$</tspan></text>
      </g>
      <g>
        <g>
          <g>
            <rect class="cls-4" x="718.55" y="80.79" width="1.32" height=".85"/>
            <rect class="cls-4" x="716.18" y="80.79" width="1.32" height=".85"/>
            <rect class="cls-4" x="713.82" y="80.79" width="1.32" height=".85"/>
          </g>
          <g>
            <rect class="cls-4" x="725.66" y="80.79" width="1.32" height=".85"/>
            <rect class="cls-4" x="723.3" y="80.79" width="1.32" height=".85"/>
            <rect class="cls-4" x="720.93" y="80.79" width="1.32" height=".85"/>
          </g>
          <g>
            <rect class="cls-4" x="732.78" y="80.79" width="1.32" height=".85"/>
            <rect class="cls-4" x="730.41" y="80.79" width="1.32" height=".85"/>
            <rect class="cls-4" x="728.05" y="80.79" width="1.32" height=".85"/>
          </g>
          <g>
            <rect class="cls-4" x="739.9" y="80.79" width="1.32" height=".85"/>
            <rect class="cls-4" x="737.53" y="80.79" width="1.32" height=".85"/>
            <rect class="cls-4" x="735.17" y="80.79" width="1.32" height=".85"/>
          </g>
          <g>
            <rect class="cls-4" x="747.02" y="80.79" width="1.32" height=".85"/>
            <rect class="cls-4" x="744.65" y="80.79" width="1.32" height=".85"/>
            <rect class="cls-4" x="742.29" y="80.79" width="1.32" height=".85"/>
          </g>
          <g>
            <rect class="cls-4" x="754.13" y="80.79" width="1.32" height=".85"/>
            <rect class="cls-4" x="751.77" y="80.79" width="1.32" height=".85"/>
            <rect class="cls-4" x="749.4" y="80.79" width="1.32" height=".85"/>
          </g>
          <g>
            <rect class="cls-4" x="761.25" y="80.79" width="1.32" height=".85"/>
            <rect class="cls-4" x="758.88" y="80.79" width="1.32" height=".85"/>
            <rect class="cls-4" x="756.52" y="80.79" width="1.32" height=".85"/>
          </g>
        </g>
        <text class="cls-3" transform="translate(767.5 81.99)"><tspan x="0" y="0">$$</tspan></text>
      </g>
      <g>
        <g>
          <g>
            <rect class="cls-4" x="718.55" y="116.79" width="1.32" height=".85"/>
            <rect class="cls-4" x="716.18" y="116.79" width="1.32" height=".85"/>
            <rect class="cls-4" x="713.82" y="116.79" width="1.32" height=".85"/>
          </g>
          <g>
            <rect class="cls-4" x="725.66" y="116.79" width="1.32" height=".85"/>
            <rect class="cls-4" x="723.3" y="116.79" width="1.32" height=".85"/>
            <rect class="cls-4" x="720.93" y="116.79" width="1.32" height=".85"/>
          </g>
          <g>
            <rect class="cls-4" x="732.78" y="116.79" width="1.32" height=".85"/>
            <rect class="cls-4" x="730.41" y="116.79" width="1.32" height=".85"/>
            <rect class="cls-4" x="728.05" y="116.79" width="1.32" height=".85"/>
          </g>
          <g>
            <rect class="cls-4" x="739.9" y="116.79" width="1.32" height=".85"/>
            <rect class="cls-4" x="737.53" y="116.79" width="1.32" height=".85"/>
            <rect class="cls-4" x="735.17" y="116.79" width="1.32" height=".85"/>
          </g>
          <g>
            <rect class="cls-4" x="747.02" y="116.79" width="1.32" height=".85"/>
            <rect class="cls-4" x="744.65" y="116.79" width="1.32" height=".85"/>
            <rect class="cls-4" x="742.29" y="116.79" width="1.32" height=".85"/>
          </g>
          <g>
            <rect class="cls-4" x="754.13" y="116.79" width="1.32" height=".85"/>
            <rect class="cls-4" x="751.77" y="116.79" width="1.32" height=".85"/>
            <rect class="cls-4" x="749.4" y="116.79" width="1.32" height=".85"/>
          </g>
          <g>
            <rect class="cls-4" x="761.25" y="116.79" width="1.32" height=".85"/>
            <rect class="cls-4" x="758.88" y="116.79" width="1.32" height=".85"/>
            <rect class="cls-4" x="756.52" y="116.79" width="1.32" height=".85"/>
          </g>
        </g>
        <text class="cls-3" transform="translate(767.5 117.99)"><tspan x="0" y="0">$$</tspan></text>
      </g>
      <g>
        <g>
          <g>
            <rect class="cls-4" x="348.55" y="117.79" width="1.32" height=".85"/>
            <rect class="cls-4" x="346.18" y="117.79" width="1.32" height=".85"/>
            <rect class="cls-4" x="343.82" y="117.79" width="1.32" height=".85"/>
          </g>
          <g>
            <rect class="cls-4" x="355.66" y="117.79" width="1.32" height=".85"/>
            <rect class="cls-4" x="353.3" y="117.79" width="1.32" height=".85"/>
            <rect class="cls-4" x="350.93" y="117.79" width="1.32" height=".85"/>
          </g>
          <g>
            <rect class="cls-4" x="362.78" y="117.79" width="1.32" height=".85"/>
            <rect class="cls-4" x="360.41" y="117.79" width="1.32" height=".85"/>
            <rect class="cls-4" x="358.05" y="117.79" width="1.32" height=".85"/>
          </g>
          <g>
            <rect class="cls-4" x="369.9" y="117.79" width="1.32" height=".85"/>
            <rect class="cls-4" x="367.53" y="117.79" width="1.32" height=".85"/>
            <rect class="cls-4" x="365.17" y="117.79" width="1.32" height=".85"/>
          </g>
          <g>
            <rect class="cls-4" x="377.02" y="117.79" width="1.32" height=".85"/>
            <rect class="cls-4" x="374.65" y="117.79" width="1.32" height=".85"/>
            <rect class="cls-4" x="372.29" y="117.79" width="1.32" height=".85"/>
          </g>
          <g>
            <rect class="cls-4" x="384.13" y="117.79" width="1.32" height=".85"/>
            <rect class="cls-4" x="381.77" y="117.79" width="1.32" height=".85"/>
            <rect class="cls-4" x="379.4" y="117.79" width="1.32" height=".85"/>
          </g>
          <g>
            <rect class="cls-4" x="391.25" y="117.79" width="1.32" height=".85"/>
            <rect class="cls-4" x="388.88" y="117.79" width="1.32" height=".85"/>
            <rect class="cls-4" x="386.52" y="117.79" width="1.32" height=".85"/>
          </g>
        </g>
        <text class="cls-3" transform="translate(397.5 118.99)"><tspan x="0" y="0">$$</tspan></text>
      </g>
    </g>
  </g>
</svg>